%TF.GenerationSoftware,KiCad,Pcbnew,9.0.6*%
%TF.CreationDate,2025-12-12T18:11:39+01:00*%
%TF.ProjectId,PCB,5043422e-6b69-4636-9164-5f7063625858,rev?*%
%TF.SameCoordinates,Original*%
%TF.FileFunction,Soldermask,Bot*%
%TF.FilePolarity,Negative*%
%FSLAX46Y46*%
G04 Gerber Fmt 4.6, Leading zero omitted, Abs format (unit mm)*
G04 Created by KiCad (PCBNEW 9.0.6) date 2025-12-12 18:11:39*
%MOMM*%
%LPD*%
G01*
G04 APERTURE LIST*
%ADD10R,1.700000X1.700000*%
%ADD11O,1.700000X1.700000*%
%ADD12C,6.400000*%
%ADD13C,0.650000*%
%ADD14O,2.100000X1.000000*%
%ADD15O,1.600000X1.000000*%
%ADD16R,2.000000X2.000000*%
%ADD17C,2.000000*%
%ADD18C,3.200000*%
G04 APERTURE END LIST*
D10*
%TO.C,UART1*%
X193200000Y-117800000D03*
D11*
X193200000Y-120340000D03*
X193200000Y-122880000D03*
X193200000Y-125420000D03*
%TD*%
D12*
%TO.C,H2*%
X139500000Y-82120000D03*
%TD*%
%TO.C,H1*%
X192500000Y-82120000D03*
%TD*%
D10*
%TO.C,J2*%
X138600000Y-97000000D03*
D11*
X141140000Y-97000000D03*
X143680000Y-97000000D03*
%TD*%
D10*
%TO.C,J4*%
X157000000Y-98800000D03*
D11*
X159540000Y-98800000D03*
X162080000Y-98800000D03*
X164620000Y-98800000D03*
X167160000Y-98800000D03*
X169700000Y-98800000D03*
X172240000Y-98800000D03*
X174780000Y-98800000D03*
%TD*%
D13*
%TO.C,J3*%
X143100000Y-105610000D03*
X143100000Y-111390000D03*
D14*
X143630000Y-104180000D03*
D15*
X139450000Y-104180000D03*
D14*
X143630000Y-112820000D03*
D15*
X139450000Y-112820000D03*
%TD*%
D16*
%TO.C,SW6*%
X158400000Y-85200000D03*
D17*
X158400000Y-90200000D03*
X158400000Y-87700000D03*
D18*
X165900000Y-82100000D03*
X165900000Y-93300000D03*
D17*
X172900000Y-90200000D03*
X172900000Y-85200000D03*
%TD*%
D12*
%TO.C,H3*%
X192500000Y-135120000D03*
%TD*%
D10*
%TO.C,J10*%
X147075000Y-81700000D03*
D11*
X149615000Y-81700000D03*
X152155000Y-81700000D03*
%TD*%
D13*
%TO.C,J1*%
X189000000Y-111500000D03*
X189000000Y-105720000D03*
D14*
X188470000Y-112930000D03*
D15*
X192650000Y-112930000D03*
D14*
X188470000Y-104290000D03*
D15*
X192650000Y-104290000D03*
%TD*%
D10*
%TO.C,J7*%
X173360000Y-110800000D03*
D11*
X170820000Y-110800000D03*
X168280000Y-110800000D03*
X165740000Y-110800000D03*
X163200000Y-110800000D03*
X160660000Y-110800000D03*
X158120000Y-110800000D03*
%TD*%
D10*
%TO.C,I2C1*%
X185820000Y-93000000D03*
D11*
X188360000Y-93000000D03*
X190900000Y-93000000D03*
X193440000Y-93000000D03*
%TD*%
D10*
%TO.C,J9*%
X147075000Y-89800000D03*
D11*
X149615000Y-89800000D03*
X152155000Y-89800000D03*
%TD*%
D10*
%TO.C,J5*%
X190900000Y-97700000D03*
D11*
X193440000Y-97700000D03*
%TD*%
D10*
%TO.C,J6*%
X193480000Y-88300000D03*
D11*
X190940000Y-88300000D03*
X188400000Y-88300000D03*
X185860000Y-88300000D03*
%TD*%
D12*
%TO.C,H4*%
X139500000Y-135120000D03*
%TD*%
M02*
