M48
; DRILL file {KiCad 9.0.6} date 2025-12-12T18:11:34+0100
; FORMAT={-:-/ absolute / metric / decimal}
; #@! TF.CreationDate,2025-12-12T18:11:34+01:00
; #@! TF.GenerationSoftware,Kicad,Pcbnew,9.0.6
; #@! TF.FileFunction,Plated,1,2,PTH
FMAT,2
METRIC
; #@! TA.AperFunction,Plated,PTH,ComponentDrill
T1C0.200
; #@! TA.AperFunction,Plated,PTH,ViaDrill
T2C0.300
; #@! TA.AperFunction,Plated,PTH,ComponentDrill
T3C0.600
; #@! TA.AperFunction,Plated,PTH,ComponentDrill
T4C1.000
; #@! TA.AperFunction,Plated,PTH,ComponentDrill
T5C2.600
; #@! TA.AperFunction,Plated,PTH,ComponentDrill
T6C3.200
%
G90
G05
T1
X166.096Y-127.4
X166.096Y-128.8
X166.796Y-126.7
X166.796Y-128.1
X166.796Y-129.5
X167.496Y-127.4
X167.496Y-128.8
X168.196Y-126.7
X168.196Y-128.1
X168.196Y-129.5
X168.896Y-127.4
X168.896Y-128.8
T2
X137.2Y-131.0
X137.4Y-102.6
X137.6Y-94.6
X137.8Y-90.2
X138.0Y-99.4
X138.3Y-91.0
X139.6Y-88.0
X139.6Y-121.8
X140.0Y-124.6
X140.2Y-120.6
X141.0Y-101.0
X141.4Y-129.4
X141.6Y-125.6
X142.2Y-90.6
X142.2Y-102.6
X143.2Y-94.6
X143.2Y-110.0
X143.25Y-107.25
X143.6Y-91.4
X143.9Y-135.7
X144.0Y-134.0
X144.4Y-125.4
X144.6Y-124.3
X145.0Y-80.0
X145.0Y-81.5
X145.0Y-83.0
X145.0Y-84.4
X145.0Y-87.5
X145.0Y-89.0
X145.0Y-90.5
X145.0Y-91.9
X145.0Y-137.2
X146.0Y-80.0
X146.0Y-95.6
X146.0Y-97.6
X146.2Y-84.4
X146.2Y-87.5
X146.2Y-108.2
X146.4Y-100.6
X146.4Y-115.0
X146.7Y-79.5
X146.8Y-117.8
X146.8Y-118.6
X146.8Y-122.2
X147.0Y-107.6
X147.0Y-126.2
X147.2Y-135.2
X147.4Y-80.0
X147.6Y-97.0
X147.6Y-106.6
X147.6Y-108.4
X147.6Y-112.2
X147.6Y-121.4
X147.6Y-133.4
X147.83Y-123.43
X148.1Y-79.5
X148.2Y-87.5
X148.4Y-84.4
X148.4Y-126.4
X148.4Y-137.0
X148.6Y-131.6
X148.8Y-100.6
X148.9Y-80.0
X149.0Y-117.6
X149.0Y-118.8
X149.0Y-123.2
X149.1Y-91.4
X149.6Y-79.5
X150.0Y-120.2
X150.0Y-133.0
X150.4Y-80.0
X150.4Y-107.6
X150.45Y-85.05
X150.8Y-84.3
X150.8Y-87.5
X150.8Y-88.2
X150.8Y-111.0
X150.8Y-113.5
X150.8Y-116.2
X150.8Y-122.2
X151.1Y-79.5
X151.4Y-129.0
X151.6Y-118.6
X151.7Y-93.8
X152.0Y-80.0
X152.0Y-125.7
X152.4Y-118.6
X152.7Y-79.5
X152.7Y-91.4
X152.75Y-130.45
X152.8Y-94.8
X152.8Y-133.6
X152.8Y-135.4
X153.38Y-124.18
X153.424Y-99.176
X153.5Y-80.0
X153.5Y-84.3
X154.0Y-100.6
X154.062Y-123.762
X154.3Y-80.0
X154.3Y-81.5
X154.3Y-83.0
X154.3Y-84.4
X154.6Y-96.6
X154.6Y-98.6
X154.8Y-128.4
X155.2Y-133.0
X155.2Y-134.4
X155.4Y-130.0
X155.4Y-131.4
X155.6Y-86.8
X155.9Y-92.0
X156.0Y-124.39
X156.4Y-81.4
X156.532Y-114.159
X156.534Y-115.759
X156.535Y-114.959
X156.547Y-113.359
X156.6Y-86.8
X156.6Y-117.4
X156.616Y-116.555
X156.7Y-92.9
X156.9Y-101.7
X157.0Y-89.0
X157.2Y-103.6
X157.248Y-112.974
X157.5Y-93.8
X158.3Y-82.4
X158.5Y-101.9
X158.6Y-81.0
X158.7Y-134.1
X159.4Y-120.4
X159.4Y-124.0
X159.4Y-126.2
X159.4Y-132.0
X159.6Y-109.4
X160.6Y-101.5
X160.7Y-92.5
X160.8Y-130.4
X161.2Y-122.4
X161.6Y-80.8
X161.6Y-88.4
X161.6Y-123.8
X161.8Y-95.0
X162.0Y-83.6
X162.2Y-129.6
X162.4Y-131.6
X162.8Y-84.3
X162.8Y-85.7
X163.0Y-82.4
X163.0Y-119.6
X163.8Y-120.8
X163.8Y-128.4
X163.95Y-95.85
X164.2Y-126.4
X165.0Y-130.8
X165.2Y-96.1
X165.2Y-108.5
X165.4Y-86.4
X165.6Y-119.8
X165.8Y-132.0
X166.4Y-124.6
X167.2Y-89.0
X167.2Y-108.5
X167.356Y-112.744
X167.6Y-131.0
X168.0Y-115.7
X168.0Y-124.2
X168.4Y-92.2
X168.5Y-122.2
X168.8Y-82.8
X168.8Y-94.6
X169.2Y-80.6
X169.3Y-108.5
X169.6Y-132.0
X169.7Y-92.8
X169.8Y-89.1
X169.8Y-125.2
X170.1Y-86.2
X170.1Y-121.1
X170.2Y-123.2
X170.6Y-128.2
X170.8Y-80.8
X170.8Y-116.3
X170.8Y-119.8
X170.8Y-130.2
X170.9Y-94.7
X171.2Y-87.8
X171.6Y-102.9
X171.6Y-107.9
X171.6Y-126.2
X171.8Y-112.5
X172.2Y-123.6
X172.2Y-129.0
X172.2Y-131.6
X172.6Y-104.1
X173.0Y-137.2
X173.1Y-113.5
X173.2Y-121.85
X173.5Y-102.7
X173.8Y-82.8
X173.813Y-115.836
X174.2Y-87.8
X174.7Y-101.3
X174.7Y-104.5
X175.8Y-107.7
X176.0Y-119.31
X176.0Y-120.58
X176.1Y-137.6
X176.4Y-125.6
X176.4Y-128.2
X176.4Y-129.4
X176.4Y-130.6
X176.4Y-131.8
X176.47Y-126.93
X176.52Y-133.28
X176.6Y-107.4
X176.623Y-113.026
X176.874Y-114.126
X177.3Y-106.7
X177.3Y-112.4
X177.4Y-136.6
X177.6Y-96.0
X177.6Y-116.8
X178.0Y-81.8
X178.0Y-82.6
X178.0Y-94.2
X178.0Y-135.3
X178.4Y-87.6
X178.4Y-88.4
X178.8Y-116.8
X178.9Y-100.8
X179.6Y-112.2
X179.6Y-113.0
X179.6Y-113.8
X179.68Y-133.28
X179.88Y-123.12
X179.933Y-122.218
X180.0Y-125.6
X180.2Y-90.0
X180.2Y-124.0
X180.6Y-134.8
X181.4Y-126.4
X181.6Y-91.4
X181.8Y-94.4
X181.8Y-99.4
X182.2Y-82.2
X182.2Y-107.8
X182.8Y-94.4
X182.8Y-99.4
X183.0Y-101.6
X183.2Y-86.0
X183.4Y-131.5
X183.5Y-118.1
X183.6Y-116.8
X184.0Y-94.4
X184.0Y-99.4
X184.0Y-101.6
X184.0Y-137.6
X184.2Y-117.8
X184.2Y-126.4
X184.4Y-82.2
X184.525Y-112.475
X185.0Y-101.6
X185.2Y-118.3
X185.2Y-131.3
X186.0Y-100.7
X186.4Y-125.8
X186.7Y-115.2
X186.9Y-82.3
X187.1Y-131.5
X188.0Y-116.4
X188.0Y-123.0
X188.0Y-123.8
X188.0Y-124.6
X188.2Y-99.6
X188.4Y-90.6
X188.8Y-79.6
X188.8Y-107.096
X188.8Y-131.2
X188.998Y-102.802
X189.0Y-109.6
X189.0Y-137.5
X189.4Y-115.3
X190.4Y-116.4
X190.4Y-118.8
X190.8Y-95.2
X190.8Y-107.6
X190.8Y-109.6
X191.0Y-90.6
X191.0Y-102.0
X191.2Y-99.6
X192.4Y-102.8
X193.1Y-129.9
X193.2Y-95.4
X193.2Y-99.6
X193.2Y-128.0
X193.4Y-90.6
X194.5Y-130.8
X194.6Y-86.0
X194.6Y-128.4
T4
X138.6Y-97.0
X141.14Y-97.0
X143.68Y-97.0
X147.075Y-81.7
X147.075Y-89.8
X149.615Y-81.7
X149.615Y-89.8
X152.155Y-81.7
X152.155Y-89.8
X157.0Y-98.8
X158.12Y-110.8
X158.4Y-85.2
X158.4Y-87.7
X158.4Y-90.2
X159.54Y-98.8
X160.66Y-110.8
X162.08Y-98.8
X163.2Y-110.8
X164.62Y-98.8
X165.74Y-110.8
X167.16Y-98.8
X168.28Y-110.8
X169.7Y-98.8
X170.82Y-110.8
X172.24Y-98.8
X172.9Y-85.2
X172.9Y-90.2
X173.36Y-110.8
X174.78Y-98.8
X185.82Y-93.0
X185.86Y-88.3
X188.36Y-93.0
X188.4Y-88.3
X190.9Y-93.0
X190.9Y-97.7
X190.94Y-88.3
X193.2Y-117.8
X193.2Y-120.34
X193.2Y-122.88
X193.2Y-125.42
X193.44Y-93.0
X193.44Y-97.7
X193.48Y-88.3
T5
X165.9Y-82.1
X165.9Y-93.3
T6
X139.5Y-82.12
X139.5Y-135.12
X192.5Y-82.12
X192.5Y-135.12
T3
G00X139.75Y-104.18
M15
G01X139.15Y-104.18
M16
G05
G00X139.75Y-112.82
M15
G01X139.15Y-112.82
M16
G05
G00X144.18Y-104.18
M15
G01X143.08Y-104.18
M16
G05
G00X144.18Y-112.82
M15
G01X143.08Y-112.82
M16
G05
G00X187.92Y-104.29
M15
G01X189.02Y-104.29
M16
G05
G00X187.92Y-112.93
M15
G01X189.02Y-112.93
M16
G05
G00X192.35Y-104.29
M15
G01X192.95Y-104.29
M16
G05
G00X192.35Y-112.93
M15
G01X192.95Y-112.93
M16
G05
M30
