%TF.GenerationSoftware,KiCad,Pcbnew,9.0.6*%
%TF.CreationDate,2025-12-12T18:11:39+01:00*%
%TF.ProjectId,PCB,5043422e-6b69-4636-9164-5f7063625858,rev?*%
%TF.SameCoordinates,Original*%
%TF.FileFunction,Soldermask,Top*%
%TF.FilePolarity,Negative*%
%FSLAX46Y46*%
G04 Gerber Fmt 4.6, Leading zero omitted, Abs format (unit mm)*
G04 Created by KiCad (PCBNEW 9.0.6) date 2025-12-12 18:11:39*
%MOMM*%
%LPD*%
G01*
G04 APERTURE LIST*
G04 Aperture macros list*
%AMRoundRect*
0 Rectangle with rounded corners*
0 $1 Rounding radius*
0 $2 $3 $4 $5 $6 $7 $8 $9 X,Y pos of 4 corners*
0 Add a 4 corners polygon primitive as box body*
4,1,4,$2,$3,$4,$5,$6,$7,$8,$9,$2,$3,0*
0 Add four circle primitives for the rounded corners*
1,1,$1+$1,$2,$3*
1,1,$1+$1,$4,$5*
1,1,$1+$1,$6,$7*
1,1,$1+$1,$8,$9*
0 Add four rect primitives between the rounded corners*
20,1,$1+$1,$2,$3,$4,$5,0*
20,1,$1+$1,$4,$5,$6,$7,0*
20,1,$1+$1,$6,$7,$8,$9,0*
20,1,$1+$1,$8,$9,$2,$3,0*%
%AMFreePoly0*
4,1,6,1.000000,0.000000,0.500000,-0.750000,-0.500000,-0.750000,-0.500000,0.750000,0.500000,0.750000,1.000000,0.000000,1.000000,0.000000,$1*%
%AMFreePoly1*
4,1,6,0.500000,-0.750000,-0.650000,-0.750000,-0.150000,0.000000,-0.650000,0.750000,0.500000,0.750000,0.500000,-0.750000,0.500000,-0.750000,$1*%
G04 Aperture macros list end*
%ADD10RoundRect,0.250000X0.400000X0.625000X-0.400000X0.625000X-0.400000X-0.625000X0.400000X-0.625000X0*%
%ADD11R,1.700000X1.700000*%
%ADD12O,1.700000X1.700000*%
%ADD13RoundRect,0.250000X-0.412500X-0.650000X0.412500X-0.650000X0.412500X0.650000X-0.412500X0.650000X0*%
%ADD14RoundRect,0.162500X0.617500X0.162500X-0.617500X0.162500X-0.617500X-0.162500X0.617500X-0.162500X0*%
%ADD15RoundRect,0.090000X-0.360000X0.660000X-0.360000X-0.660000X0.360000X-0.660000X0.360000X0.660000X0*%
%ADD16RoundRect,0.200000X0.800000X-0.200000X0.800000X0.200000X-0.800000X0.200000X-0.800000X-0.200000X0*%
%ADD17C,6.400000*%
%ADD18RoundRect,0.150000X-0.512500X-0.150000X0.512500X-0.150000X0.512500X0.150000X-0.512500X0.150000X0*%
%ADD19RoundRect,0.250000X-1.500000X-0.650000X1.500000X-0.650000X1.500000X0.650000X-1.500000X0.650000X0*%
%ADD20RoundRect,0.250000X-0.475000X0.337500X-0.475000X-0.337500X0.475000X-0.337500X0.475000X0.337500X0*%
%ADD21RoundRect,0.200000X-0.200000X-0.800000X0.200000X-0.800000X0.200000X0.800000X-0.200000X0.800000X0*%
%ADD22RoundRect,0.375000X-0.625000X-0.375000X0.625000X-0.375000X0.625000X0.375000X-0.625000X0.375000X0*%
%ADD23RoundRect,0.500000X-0.500000X-1.400000X0.500000X-1.400000X0.500000X1.400000X-0.500000X1.400000X0*%
%ADD24RoundRect,0.250000X-0.350000X-0.450000X0.350000X-0.450000X0.350000X0.450000X-0.350000X0.450000X0*%
%ADD25RoundRect,0.250000X-1.100000X0.412500X-1.100000X-0.412500X1.100000X-0.412500X1.100000X0.412500X0*%
%ADD26RoundRect,0.250000X0.325000X0.450000X-0.325000X0.450000X-0.325000X-0.450000X0.325000X-0.450000X0*%
%ADD27RoundRect,0.250000X-0.337500X-0.475000X0.337500X-0.475000X0.337500X0.475000X-0.337500X0.475000X0*%
%ADD28RoundRect,0.250000X-0.625000X0.400000X-0.625000X-0.400000X0.625000X-0.400000X0.625000X0.400000X0*%
%ADD29C,0.650000*%
%ADD30R,1.450000X0.600000*%
%ADD31R,1.450000X0.300000*%
%ADD32O,2.100000X1.000000*%
%ADD33O,1.600000X1.000000*%
%ADD34RoundRect,0.250000X0.475000X-0.337500X0.475000X0.337500X-0.475000X0.337500X-0.475000X-0.337500X0*%
%ADD35RoundRect,0.150000X0.825000X0.150000X-0.825000X0.150000X-0.825000X-0.150000X0.825000X-0.150000X0*%
%ADD36R,2.000000X2.000000*%
%ADD37C,2.000000*%
%ADD38C,3.200000*%
%ADD39RoundRect,0.162500X-0.617500X-0.162500X0.617500X-0.162500X0.617500X0.162500X-0.617500X0.162500X0*%
%ADD40RoundRect,0.250000X0.350000X0.450000X-0.350000X0.450000X-0.350000X-0.450000X0.350000X-0.450000X0*%
%ADD41RoundRect,0.250000X0.412500X0.650000X-0.412500X0.650000X-0.412500X-0.650000X0.412500X-0.650000X0*%
%ADD42RoundRect,0.250000X0.412500X1.100000X-0.412500X1.100000X-0.412500X-1.100000X0.412500X-1.100000X0*%
%ADD43RoundRect,0.250000X1.100000X-0.412500X1.100000X0.412500X-1.100000X0.412500X-1.100000X-0.412500X0*%
%ADD44RoundRect,0.250000X1.500000X0.650000X-1.500000X0.650000X-1.500000X-0.650000X1.500000X-0.650000X0*%
%ADD45RoundRect,0.250000X0.337500X0.475000X-0.337500X0.475000X-0.337500X-0.475000X0.337500X-0.475000X0*%
%ADD46R,1.500000X0.900000*%
%ADD47R,0.900000X1.500000*%
%ADD48C,0.600000*%
%ADD49R,3.900000X3.900000*%
%ADD50FreePoly0,0.000000*%
%ADD51FreePoly1,0.000000*%
G04 APERTURE END LIST*
D10*
%TO.C,R14*%
X142850000Y-129550000D03*
X139750000Y-129550000D03*
%TD*%
D11*
%TO.C,UART1*%
X193200000Y-117800000D03*
D12*
X193200000Y-120340000D03*
X193200000Y-122880000D03*
X193200000Y-125420000D03*
%TD*%
D10*
%TO.C,R13*%
X142800000Y-126800000D03*
X139700000Y-126800000D03*
%TD*%
D13*
%TO.C,C5*%
X181475000Y-124600000D03*
X184600000Y-124600000D03*
%TD*%
D14*
%TO.C,U2*%
X183600000Y-109150000D03*
X183600000Y-108200000D03*
X183600000Y-107250000D03*
X180900000Y-107250000D03*
X180900000Y-108200000D03*
X180900000Y-109150000D03*
%TD*%
D15*
%TO.C,D6*%
X141600000Y-88000000D03*
X138300000Y-88000000D03*
X138300000Y-92900000D03*
X141600000Y-92900000D03*
%TD*%
D16*
%TO.C,SW1*%
X152750000Y-136500000D03*
X152750000Y-132300000D03*
%TD*%
D17*
%TO.C,H2*%
X139500000Y-82120000D03*
%TD*%
D18*
%TO.C,Q1*%
X145125000Y-130650000D03*
X145125000Y-132550000D03*
X147400000Y-131600000D03*
%TD*%
D19*
%TO.C,D4*%
X177600000Y-104400000D03*
X182600000Y-104400000D03*
%TD*%
D20*
%TO.C,C1*%
X137400000Y-127200000D03*
X137400000Y-129275000D03*
%TD*%
D21*
%TO.C,SW5*%
X176200000Y-93600000D03*
X180400000Y-93600000D03*
%TD*%
D17*
%TO.C,H1*%
X192500000Y-82120000D03*
%TD*%
D22*
%TO.C,U4*%
X181700000Y-117050000D03*
X181700000Y-119350000D03*
D23*
X188000000Y-119350000D03*
D22*
X181700000Y-121650000D03*
%TD*%
D24*
%TO.C,R12*%
X142500000Y-101000000D03*
X144500000Y-101000000D03*
%TD*%
D16*
%TO.C,SW2*%
X180500000Y-136600000D03*
X180500000Y-132400000D03*
%TD*%
D20*
%TO.C,C2*%
X184000000Y-134000000D03*
X184000000Y-136075000D03*
%TD*%
D11*
%TO.C,J2*%
X138600000Y-97000000D03*
D12*
X141140000Y-97000000D03*
X143680000Y-97000000D03*
%TD*%
D11*
%TO.C,J4*%
X157000000Y-98800000D03*
D12*
X159540000Y-98800000D03*
X162080000Y-98800000D03*
X164620000Y-98800000D03*
X167160000Y-98800000D03*
X169700000Y-98800000D03*
X172240000Y-98800000D03*
X174780000Y-98800000D03*
%TD*%
D25*
%TO.C,C9*%
X189200000Y-126400000D03*
X189200000Y-129525000D03*
%TD*%
D26*
%TO.C,D2*%
X149500000Y-111000000D03*
X147450000Y-111000000D03*
%TD*%
D20*
%TO.C,C19*%
X179800000Y-127600000D03*
X179800000Y-129675000D03*
%TD*%
D27*
%TO.C,C16*%
X176325000Y-90600000D03*
X178400000Y-90600000D03*
%TD*%
D28*
%TO.C,R6*%
X187000000Y-80700000D03*
X187000000Y-83800000D03*
%TD*%
D19*
%TO.C,D5*%
X180400000Y-97800000D03*
X185400000Y-97800000D03*
%TD*%
D29*
%TO.C,J3*%
X143100000Y-105610000D03*
X143100000Y-111390000D03*
D30*
X144545000Y-105250000D03*
X144545000Y-106050000D03*
D31*
X144545000Y-107250000D03*
X144545000Y-108250000D03*
X144545000Y-108750000D03*
X144545000Y-109750000D03*
D30*
X144545000Y-110950000D03*
X144545000Y-111750000D03*
X144545000Y-111750000D03*
X144545000Y-110950000D03*
D31*
X144545000Y-110250000D03*
X144545000Y-109250000D03*
X144545000Y-107750000D03*
X144545000Y-106750000D03*
D30*
X144545000Y-106050000D03*
X144545000Y-105250000D03*
D32*
X143630000Y-104180000D03*
D33*
X139450000Y-104180000D03*
D32*
X143630000Y-112820000D03*
D33*
X139450000Y-112820000D03*
%TD*%
D34*
%TO.C,C4*%
X155600000Y-85275000D03*
X155600000Y-83200000D03*
%TD*%
D35*
%TO.C,U1*%
X143000000Y-124340000D03*
X143000000Y-123070000D03*
X143000000Y-121800000D03*
X143000000Y-120530000D03*
X143000000Y-119260000D03*
X143000000Y-117990000D03*
X143000000Y-116720000D03*
X143000000Y-115450000D03*
X138050000Y-115450000D03*
X138050000Y-116720000D03*
X138050000Y-117990000D03*
X138050000Y-119260000D03*
X138050000Y-120530000D03*
X138050000Y-121800000D03*
X138050000Y-123070000D03*
X138050000Y-124340000D03*
%TD*%
D36*
%TO.C,SW6*%
X158400000Y-85200000D03*
D37*
X158400000Y-90200000D03*
X158400000Y-87700000D03*
D38*
X165900000Y-82100000D03*
X165900000Y-93300000D03*
D37*
X172900000Y-90200000D03*
X172900000Y-85200000D03*
%TD*%
D21*
%TO.C,SW4*%
X176200000Y-87600000D03*
X180400000Y-87600000D03*
%TD*%
D34*
%TO.C,C6*%
X169400000Y-106600000D03*
X169400000Y-104525000D03*
%TD*%
D39*
%TO.C,U3*%
X149050000Y-106500000D03*
X149050000Y-107450000D03*
X149050000Y-108400000D03*
X151750000Y-108400000D03*
X151750000Y-107450000D03*
X151750000Y-106500000D03*
%TD*%
D40*
%TO.C,R4*%
X152000000Y-127000000D03*
X150000000Y-127000000D03*
%TD*%
D41*
%TO.C,C7*%
X184525000Y-114000000D03*
X181400000Y-114000000D03*
%TD*%
D42*
%TO.C,C17*%
X174900000Y-114400000D03*
X171775000Y-114400000D03*
%TD*%
D24*
%TO.C,R9*%
X150000000Y-124500000D03*
X152000000Y-124500000D03*
%TD*%
D18*
%TO.C,Q2*%
X145125000Y-126650000D03*
X145125000Y-128550000D03*
X147400000Y-127600000D03*
%TD*%
D27*
%TO.C,C12*%
X144725000Y-86000000D03*
X146800000Y-86000000D03*
%TD*%
D43*
%TO.C,C18*%
X166200000Y-106525000D03*
X166200000Y-103400000D03*
%TD*%
D44*
%TO.C,D3*%
X154200000Y-103500000D03*
X149200000Y-103500000D03*
%TD*%
D26*
%TO.C,D1*%
X149550000Y-116000000D03*
X147500000Y-116000000D03*
%TD*%
D17*
%TO.C,H3*%
X192500000Y-135120000D03*
%TD*%
D24*
%TO.C,R2*%
X192555000Y-101360000D03*
X194555000Y-101360000D03*
%TD*%
%TO.C,R3*%
X187555000Y-101360000D03*
X189555000Y-101360000D03*
%TD*%
D40*
%TO.C,R8*%
X148000000Y-124500000D03*
X146000000Y-124500000D03*
%TD*%
D28*
%TO.C,R10*%
X187000000Y-133500000D03*
X187000000Y-136600000D03*
%TD*%
D11*
%TO.C,J10*%
X147075000Y-81700000D03*
D12*
X149615000Y-81700000D03*
X152155000Y-81700000D03*
%TD*%
D24*
%TO.C,R11*%
X137500000Y-101000000D03*
X139500000Y-101000000D03*
%TD*%
D29*
%TO.C,J1*%
X189000000Y-111500000D03*
X189000000Y-105720000D03*
D30*
X187555000Y-111860000D03*
X187555000Y-111060000D03*
D31*
X187555000Y-109860000D03*
X187555000Y-108860000D03*
X187555000Y-108360000D03*
X187555000Y-107360000D03*
D30*
X187555000Y-106160000D03*
X187555000Y-105360000D03*
X187555000Y-105360000D03*
X187555000Y-106160000D03*
D31*
X187555000Y-106860000D03*
X187555000Y-107860000D03*
X187555000Y-109360000D03*
X187555000Y-110360000D03*
D30*
X187555000Y-111060000D03*
X187555000Y-111860000D03*
D32*
X188470000Y-112930000D03*
D33*
X192650000Y-112930000D03*
D32*
X188470000Y-104290000D03*
D33*
X192650000Y-104290000D03*
%TD*%
D11*
%TO.C,J7*%
X173360000Y-110800000D03*
D12*
X170820000Y-110800000D03*
X168280000Y-110800000D03*
X165740000Y-110800000D03*
X163200000Y-110800000D03*
X160660000Y-110800000D03*
X158120000Y-110800000D03*
%TD*%
D11*
%TO.C,I2C1*%
X185820000Y-93000000D03*
D12*
X188360000Y-93000000D03*
X190900000Y-93000000D03*
X193440000Y-93000000D03*
%TD*%
D20*
%TO.C,C11*%
X182800000Y-127600000D03*
X182800000Y-129675000D03*
%TD*%
D40*
%TO.C,R7*%
X146800000Y-93400000D03*
X144800000Y-93400000D03*
%TD*%
D27*
%TO.C,C14*%
X179500000Y-84500000D03*
X181575000Y-84500000D03*
%TD*%
D26*
%TO.C,D7*%
X149550000Y-113500000D03*
X147500000Y-113500000D03*
%TD*%
D11*
%TO.C,J9*%
X147075000Y-89800000D03*
D12*
X149615000Y-89800000D03*
X152155000Y-89800000D03*
%TD*%
D11*
%TO.C,J5*%
X190900000Y-97700000D03*
D12*
X193440000Y-97700000D03*
%TD*%
D11*
%TO.C,J6*%
X193480000Y-88300000D03*
D12*
X190940000Y-88300000D03*
X188400000Y-88300000D03*
X185860000Y-88300000D03*
%TD*%
D28*
%TO.C,R5*%
X184400000Y-80650000D03*
X184400000Y-83750000D03*
%TD*%
D34*
%TO.C,C8*%
X163000000Y-106675000D03*
X163000000Y-104600000D03*
%TD*%
%TO.C,C13*%
X155600000Y-90275000D03*
X155600000Y-88200000D03*
%TD*%
D45*
%TO.C,C15*%
X177575000Y-84500000D03*
X175500000Y-84500000D03*
%TD*%
D34*
%TO.C,C3*%
X160600000Y-106675000D03*
X160600000Y-104600000D03*
%TD*%
D10*
%TO.C,R1*%
X149100000Y-135200000D03*
X146000000Y-135200000D03*
%TD*%
D46*
%TO.C,U6*%
X174745606Y-135820000D03*
X174745606Y-134550000D03*
X174745606Y-133280000D03*
X174745606Y-132010000D03*
X174745606Y-130740000D03*
X174745606Y-129470000D03*
X174745606Y-128200000D03*
X174745606Y-126930000D03*
X174745606Y-125660000D03*
X174745606Y-124390000D03*
X174745606Y-123120000D03*
X174745606Y-121850000D03*
X174745606Y-120580000D03*
X174745606Y-119310000D03*
D47*
X172980606Y-118060000D03*
X171710606Y-118060000D03*
X170440606Y-118060000D03*
X169170606Y-118060000D03*
X167900606Y-118060000D03*
X166630606Y-118060000D03*
X165360606Y-118060000D03*
X164090606Y-118060000D03*
X162820606Y-118060000D03*
X161550606Y-118060000D03*
X160280606Y-118060000D03*
X159010606Y-118060000D03*
D46*
X157245606Y-119310000D03*
X157245606Y-120580000D03*
X157245606Y-121850000D03*
X157245606Y-123120000D03*
X157245606Y-124390000D03*
X157245606Y-125660000D03*
X157245606Y-126930000D03*
X157245606Y-128200000D03*
X157245606Y-129470000D03*
X157245606Y-130740000D03*
X157245606Y-132010000D03*
X157245606Y-133280000D03*
X157245606Y-134550000D03*
X157245606Y-135820000D03*
D48*
X168895606Y-128800000D03*
X168895606Y-127400000D03*
X168195606Y-129500000D03*
X168195606Y-128100000D03*
X168195606Y-126700000D03*
X167495606Y-128800000D03*
D49*
X167495606Y-128100000D03*
D48*
X167495606Y-127400000D03*
X166795606Y-129500000D03*
X166795606Y-128100000D03*
X166795606Y-126700000D03*
X166095606Y-128800000D03*
X166095606Y-127400000D03*
%TD*%
D21*
%TO.C,SW3*%
X176200000Y-81600000D03*
X180400000Y-81600000D03*
%TD*%
D50*
%TO.C,JP1*%
X165850000Y-114000000D03*
D51*
X167300000Y-114000000D03*
%TD*%
D20*
%TO.C,C10*%
X185800000Y-127600000D03*
X185800000Y-129675000D03*
%TD*%
D17*
%TO.C,H4*%
X139500000Y-135120000D03*
%TD*%
M02*
