%TF.GenerationSoftware,KiCad,Pcbnew,9.0.6*%
%TF.CreationDate,2025-12-12T18:11:39+01:00*%
%TF.ProjectId,PCB,5043422e-6b69-4636-9164-5f7063625858,rev?*%
%TF.SameCoordinates,Original*%
%TF.FileFunction,Legend,Top*%
%TF.FilePolarity,Positive*%
%FSLAX46Y46*%
G04 Gerber Fmt 4.6, Leading zero omitted, Abs format (unit mm)*
G04 Created by KiCad (PCBNEW 9.0.6) date 2025-12-12 18:11:39*
%MOMM*%
%LPD*%
G01*
G04 APERTURE LIST*
%ADD10C,0.200000*%
%ADD11C,0.125000*%
%ADD12C,0.250000*%
%ADD13C,0.120000*%
G04 APERTURE END LIST*
D10*
X148850000Y-95400000D02*
X153750000Y-95400000D01*
X153750000Y-98400000D01*
X148850000Y-98400000D01*
X148850000Y-95400000D01*
D11*
X150061905Y-95922365D02*
X150347619Y-95922365D01*
X150204762Y-96422365D02*
X150204762Y-95922365D01*
X150514285Y-96422365D02*
X150514285Y-96089032D01*
X150514285Y-95922365D02*
X150490476Y-95946175D01*
X150490476Y-95946175D02*
X150514285Y-95969984D01*
X150514285Y-95969984D02*
X150538095Y-95946175D01*
X150538095Y-95946175D02*
X150514285Y-95922365D01*
X150514285Y-95922365D02*
X150514285Y-95969984D01*
X150680952Y-95922365D02*
X150966666Y-95922365D01*
X150823809Y-96422365D02*
X150823809Y-95922365D01*
X151204761Y-96422365D02*
X151157142Y-96398556D01*
X151157142Y-96398556D02*
X151133332Y-96374746D01*
X151133332Y-96374746D02*
X151109523Y-96327127D01*
X151109523Y-96327127D02*
X151109523Y-96184270D01*
X151109523Y-96184270D02*
X151133332Y-96136651D01*
X151133332Y-96136651D02*
X151157142Y-96112841D01*
X151157142Y-96112841D02*
X151204761Y-96089032D01*
X151204761Y-96089032D02*
X151276189Y-96089032D01*
X151276189Y-96089032D02*
X151323808Y-96112841D01*
X151323808Y-96112841D02*
X151347618Y-96136651D01*
X151347618Y-96136651D02*
X151371427Y-96184270D01*
X151371427Y-96184270D02*
X151371427Y-96327127D01*
X151371427Y-96327127D02*
X151347618Y-96374746D01*
X151347618Y-96374746D02*
X151323808Y-96398556D01*
X151323808Y-96398556D02*
X151276189Y-96422365D01*
X151276189Y-96422365D02*
X151204761Y-96422365D01*
X151657142Y-96422365D02*
X151609523Y-96398556D01*
X151609523Y-96398556D02*
X151585713Y-96374746D01*
X151585713Y-96374746D02*
X151561904Y-96327127D01*
X151561904Y-96327127D02*
X151561904Y-96184270D01*
X151561904Y-96184270D02*
X151585713Y-96136651D01*
X151585713Y-96136651D02*
X151609523Y-96112841D01*
X151609523Y-96112841D02*
X151657142Y-96089032D01*
X151657142Y-96089032D02*
X151728570Y-96089032D01*
X151728570Y-96089032D02*
X151776189Y-96112841D01*
X151776189Y-96112841D02*
X151799999Y-96136651D01*
X151799999Y-96136651D02*
X151823808Y-96184270D01*
X151823808Y-96184270D02*
X151823808Y-96327127D01*
X151823808Y-96327127D02*
X151799999Y-96374746D01*
X151799999Y-96374746D02*
X151776189Y-96398556D01*
X151776189Y-96398556D02*
X151728570Y-96422365D01*
X151728570Y-96422365D02*
X151657142Y-96422365D01*
X152038094Y-96422365D02*
X152038094Y-96089032D01*
X152038094Y-96136651D02*
X152061904Y-96112841D01*
X152061904Y-96112841D02*
X152109523Y-96089032D01*
X152109523Y-96089032D02*
X152180951Y-96089032D01*
X152180951Y-96089032D02*
X152228570Y-96112841D01*
X152228570Y-96112841D02*
X152252380Y-96160460D01*
X152252380Y-96160460D02*
X152252380Y-96422365D01*
X152252380Y-96160460D02*
X152276189Y-96112841D01*
X152276189Y-96112841D02*
X152323808Y-96089032D01*
X152323808Y-96089032D02*
X152395237Y-96089032D01*
X152395237Y-96089032D02*
X152442856Y-96112841D01*
X152442856Y-96112841D02*
X152466666Y-96160460D01*
X152466666Y-96160460D02*
X152466666Y-96422365D01*
X149728572Y-97227337D02*
X149442858Y-97227337D01*
X149585715Y-97227337D02*
X149585715Y-96727337D01*
X149585715Y-96727337D02*
X149538096Y-96798766D01*
X149538096Y-96798766D02*
X149490477Y-96846385D01*
X149490477Y-96846385D02*
X149442858Y-96870194D01*
X149919048Y-96774956D02*
X149942857Y-96751147D01*
X149942857Y-96751147D02*
X149990476Y-96727337D01*
X149990476Y-96727337D02*
X150109524Y-96727337D01*
X150109524Y-96727337D02*
X150157143Y-96751147D01*
X150157143Y-96751147D02*
X150180952Y-96774956D01*
X150180952Y-96774956D02*
X150204762Y-96822575D01*
X150204762Y-96822575D02*
X150204762Y-96870194D01*
X150204762Y-96870194D02*
X150180952Y-96941623D01*
X150180952Y-96941623D02*
X149895238Y-97227337D01*
X149895238Y-97227337D02*
X150204762Y-97227337D01*
X150776190Y-96703528D02*
X150347619Y-97346385D01*
X151204762Y-97227337D02*
X150919048Y-97227337D01*
X151061905Y-97227337D02*
X151061905Y-96727337D01*
X151061905Y-96727337D02*
X151014286Y-96798766D01*
X151014286Y-96798766D02*
X150966667Y-96846385D01*
X150966667Y-96846385D02*
X150919048Y-96870194D01*
X151395238Y-96774956D02*
X151419047Y-96751147D01*
X151419047Y-96751147D02*
X151466666Y-96727337D01*
X151466666Y-96727337D02*
X151585714Y-96727337D01*
X151585714Y-96727337D02*
X151633333Y-96751147D01*
X151633333Y-96751147D02*
X151657142Y-96774956D01*
X151657142Y-96774956D02*
X151680952Y-96822575D01*
X151680952Y-96822575D02*
X151680952Y-96870194D01*
X151680952Y-96870194D02*
X151657142Y-96941623D01*
X151657142Y-96941623D02*
X151371428Y-97227337D01*
X151371428Y-97227337D02*
X151680952Y-97227337D01*
X152252380Y-96703528D02*
X151823809Y-97346385D01*
X152395238Y-96774956D02*
X152419047Y-96751147D01*
X152419047Y-96751147D02*
X152466666Y-96727337D01*
X152466666Y-96727337D02*
X152585714Y-96727337D01*
X152585714Y-96727337D02*
X152633333Y-96751147D01*
X152633333Y-96751147D02*
X152657142Y-96774956D01*
X152657142Y-96774956D02*
X152680952Y-96822575D01*
X152680952Y-96822575D02*
X152680952Y-96870194D01*
X152680952Y-96870194D02*
X152657142Y-96941623D01*
X152657142Y-96941623D02*
X152371428Y-97227337D01*
X152371428Y-97227337D02*
X152680952Y-97227337D01*
X153133332Y-96727337D02*
X152895237Y-96727337D01*
X152895237Y-96727337D02*
X152871428Y-96965432D01*
X152871428Y-96965432D02*
X152895237Y-96941623D01*
X152895237Y-96941623D02*
X152942856Y-96917813D01*
X152942856Y-96917813D02*
X153061904Y-96917813D01*
X153061904Y-96917813D02*
X153109523Y-96941623D01*
X153109523Y-96941623D02*
X153133332Y-96965432D01*
X153133332Y-96965432D02*
X153157142Y-97013051D01*
X153157142Y-97013051D02*
X153157142Y-97132099D01*
X153157142Y-97132099D02*
X153133332Y-97179718D01*
X153133332Y-97179718D02*
X153109523Y-97203528D01*
X153109523Y-97203528D02*
X153061904Y-97227337D01*
X153061904Y-97227337D02*
X152942856Y-97227337D01*
X152942856Y-97227337D02*
X152895237Y-97203528D01*
X152895237Y-97203528D02*
X152871428Y-97179718D01*
X150895239Y-97532309D02*
X151061905Y-98032309D01*
X151061905Y-98032309D02*
X151228572Y-97532309D01*
X151657143Y-98032309D02*
X151371429Y-98032309D01*
X151514286Y-98032309D02*
X151514286Y-97532309D01*
X151514286Y-97532309D02*
X151466667Y-97603738D01*
X151466667Y-97603738D02*
X151419048Y-97651357D01*
X151419048Y-97651357D02*
X151371429Y-97675166D01*
X187777474Y-95108500D02*
X187848902Y-95132309D01*
X187848902Y-95132309D02*
X187967950Y-95132309D01*
X187967950Y-95132309D02*
X188015569Y-95108500D01*
X188015569Y-95108500D02*
X188039378Y-95084690D01*
X188039378Y-95084690D02*
X188063188Y-95037071D01*
X188063188Y-95037071D02*
X188063188Y-94989452D01*
X188063188Y-94989452D02*
X188039378Y-94941833D01*
X188039378Y-94941833D02*
X188015569Y-94918023D01*
X188015569Y-94918023D02*
X187967950Y-94894214D01*
X187967950Y-94894214D02*
X187872712Y-94870404D01*
X187872712Y-94870404D02*
X187825093Y-94846595D01*
X187825093Y-94846595D02*
X187801283Y-94822785D01*
X187801283Y-94822785D02*
X187777474Y-94775166D01*
X187777474Y-94775166D02*
X187777474Y-94727547D01*
X187777474Y-94727547D02*
X187801283Y-94679928D01*
X187801283Y-94679928D02*
X187825093Y-94656119D01*
X187825093Y-94656119D02*
X187872712Y-94632309D01*
X187872712Y-94632309D02*
X187991759Y-94632309D01*
X187991759Y-94632309D02*
X188063188Y-94656119D01*
X188563187Y-95084690D02*
X188539378Y-95108500D01*
X188539378Y-95108500D02*
X188467949Y-95132309D01*
X188467949Y-95132309D02*
X188420330Y-95132309D01*
X188420330Y-95132309D02*
X188348902Y-95108500D01*
X188348902Y-95108500D02*
X188301283Y-95060880D01*
X188301283Y-95060880D02*
X188277473Y-95013261D01*
X188277473Y-95013261D02*
X188253664Y-94918023D01*
X188253664Y-94918023D02*
X188253664Y-94846595D01*
X188253664Y-94846595D02*
X188277473Y-94751357D01*
X188277473Y-94751357D02*
X188301283Y-94703738D01*
X188301283Y-94703738D02*
X188348902Y-94656119D01*
X188348902Y-94656119D02*
X188420330Y-94632309D01*
X188420330Y-94632309D02*
X188467949Y-94632309D01*
X188467949Y-94632309D02*
X188539378Y-94656119D01*
X188539378Y-94656119D02*
X188563187Y-94679928D01*
X189015568Y-95132309D02*
X188777473Y-95132309D01*
X188777473Y-95132309D02*
X188777473Y-94632309D01*
D12*
X184802568Y-86264619D02*
X184802568Y-85264619D01*
X185231139Y-85359857D02*
X185278758Y-85312238D01*
X185278758Y-85312238D02*
X185373996Y-85264619D01*
X185373996Y-85264619D02*
X185612091Y-85264619D01*
X185612091Y-85264619D02*
X185707329Y-85312238D01*
X185707329Y-85312238D02*
X185754948Y-85359857D01*
X185754948Y-85359857D02*
X185802567Y-85455095D01*
X185802567Y-85455095D02*
X185802567Y-85550333D01*
X185802567Y-85550333D02*
X185754948Y-85693190D01*
X185754948Y-85693190D02*
X185183520Y-86264619D01*
X185183520Y-86264619D02*
X185802567Y-86264619D01*
X186802567Y-86169380D02*
X186754948Y-86217000D01*
X186754948Y-86217000D02*
X186612091Y-86264619D01*
X186612091Y-86264619D02*
X186516853Y-86264619D01*
X186516853Y-86264619D02*
X186373996Y-86217000D01*
X186373996Y-86217000D02*
X186278758Y-86121761D01*
X186278758Y-86121761D02*
X186231139Y-86026523D01*
X186231139Y-86026523D02*
X186183520Y-85836047D01*
X186183520Y-85836047D02*
X186183520Y-85693190D01*
X186183520Y-85693190D02*
X186231139Y-85502714D01*
X186231139Y-85502714D02*
X186278758Y-85407476D01*
X186278758Y-85407476D02*
X186373996Y-85312238D01*
X186373996Y-85312238D02*
X186516853Y-85264619D01*
X186516853Y-85264619D02*
X186612091Y-85264619D01*
X186612091Y-85264619D02*
X186754948Y-85312238D01*
X186754948Y-85312238D02*
X186802567Y-85359857D01*
X181940809Y-88864098D02*
X181988428Y-88721241D01*
X181988428Y-88721241D02*
X182036047Y-88673622D01*
X182036047Y-88673622D02*
X182131285Y-88626003D01*
X182131285Y-88626003D02*
X182274142Y-88626003D01*
X182274142Y-88626003D02*
X182369380Y-88673622D01*
X182369380Y-88673622D02*
X182417000Y-88721241D01*
X182417000Y-88721241D02*
X182464619Y-88816479D01*
X182464619Y-88816479D02*
X182464619Y-89197431D01*
X182464619Y-89197431D02*
X181464619Y-89197431D01*
X181464619Y-89197431D02*
X181464619Y-88864098D01*
X181464619Y-88864098D02*
X181512238Y-88768860D01*
X181512238Y-88768860D02*
X181559857Y-88721241D01*
X181559857Y-88721241D02*
X181655095Y-88673622D01*
X181655095Y-88673622D02*
X181750333Y-88673622D01*
X181750333Y-88673622D02*
X181845571Y-88721241D01*
X181845571Y-88721241D02*
X181893190Y-88768860D01*
X181893190Y-88768860D02*
X181940809Y-88864098D01*
X181940809Y-88864098D02*
X181940809Y-89197431D01*
X181464619Y-88340288D02*
X181464619Y-87768860D01*
X182464619Y-88054574D02*
X181464619Y-88054574D01*
X182464619Y-87435526D02*
X181464619Y-87435526D01*
X181464619Y-87435526D02*
X182464619Y-86864098D01*
X182464619Y-86864098D02*
X181464619Y-86864098D01*
X181559857Y-86435526D02*
X181512238Y-86387907D01*
X181512238Y-86387907D02*
X181464619Y-86292669D01*
X181464619Y-86292669D02*
X181464619Y-86054574D01*
X181464619Y-86054574D02*
X181512238Y-85959336D01*
X181512238Y-85959336D02*
X181559857Y-85911717D01*
X181559857Y-85911717D02*
X181655095Y-85864098D01*
X181655095Y-85864098D02*
X181750333Y-85864098D01*
X181750333Y-85864098D02*
X181893190Y-85911717D01*
X181893190Y-85911717D02*
X182464619Y-86483145D01*
X182464619Y-86483145D02*
X182464619Y-85864098D01*
X150859711Y-113064619D02*
X151431139Y-113064619D01*
X151145425Y-114064619D02*
X151145425Y-113064619D01*
X151669235Y-113064619D02*
X152335901Y-114064619D01*
X152335901Y-113064619D02*
X151669235Y-114064619D01*
X191202568Y-114864619D02*
X191202568Y-115674142D01*
X191202568Y-115674142D02*
X191250187Y-115769380D01*
X191250187Y-115769380D02*
X191297806Y-115817000D01*
X191297806Y-115817000D02*
X191393044Y-115864619D01*
X191393044Y-115864619D02*
X191583520Y-115864619D01*
X191583520Y-115864619D02*
X191678758Y-115817000D01*
X191678758Y-115817000D02*
X191726377Y-115769380D01*
X191726377Y-115769380D02*
X191773996Y-115674142D01*
X191773996Y-115674142D02*
X191773996Y-114864619D01*
X192202568Y-115578904D02*
X192678758Y-115578904D01*
X192107330Y-115864619D02*
X192440663Y-114864619D01*
X192440663Y-114864619D02*
X192773996Y-115864619D01*
X193678758Y-115864619D02*
X193345425Y-115388428D01*
X193107330Y-115864619D02*
X193107330Y-114864619D01*
X193107330Y-114864619D02*
X193488282Y-114864619D01*
X193488282Y-114864619D02*
X193583520Y-114912238D01*
X193583520Y-114912238D02*
X193631139Y-114959857D01*
X193631139Y-114959857D02*
X193678758Y-115055095D01*
X193678758Y-115055095D02*
X193678758Y-115197952D01*
X193678758Y-115197952D02*
X193631139Y-115293190D01*
X193631139Y-115293190D02*
X193583520Y-115340809D01*
X193583520Y-115340809D02*
X193488282Y-115388428D01*
X193488282Y-115388428D02*
X193107330Y-115388428D01*
X193964473Y-114864619D02*
X194535901Y-114864619D01*
X194250187Y-115864619D02*
X194250187Y-114864619D01*
X195393044Y-115864619D02*
X194821616Y-115864619D01*
X195107330Y-115864619D02*
X195107330Y-114864619D01*
X195107330Y-114864619D02*
X195012092Y-115007476D01*
X195012092Y-115007476D02*
X194916854Y-115102714D01*
X194916854Y-115102714D02*
X194821616Y-115150333D01*
D11*
X185377474Y-90508500D02*
X185448902Y-90532309D01*
X185448902Y-90532309D02*
X185567950Y-90532309D01*
X185567950Y-90532309D02*
X185615569Y-90508500D01*
X185615569Y-90508500D02*
X185639378Y-90484690D01*
X185639378Y-90484690D02*
X185663188Y-90437071D01*
X185663188Y-90437071D02*
X185663188Y-90389452D01*
X185663188Y-90389452D02*
X185639378Y-90341833D01*
X185639378Y-90341833D02*
X185615569Y-90318023D01*
X185615569Y-90318023D02*
X185567950Y-90294214D01*
X185567950Y-90294214D02*
X185472712Y-90270404D01*
X185472712Y-90270404D02*
X185425093Y-90246595D01*
X185425093Y-90246595D02*
X185401283Y-90222785D01*
X185401283Y-90222785D02*
X185377474Y-90175166D01*
X185377474Y-90175166D02*
X185377474Y-90127547D01*
X185377474Y-90127547D02*
X185401283Y-90079928D01*
X185401283Y-90079928D02*
X185425093Y-90056119D01*
X185425093Y-90056119D02*
X185472712Y-90032309D01*
X185472712Y-90032309D02*
X185591759Y-90032309D01*
X185591759Y-90032309D02*
X185663188Y-90056119D01*
X186163187Y-90484690D02*
X186139378Y-90508500D01*
X186139378Y-90508500D02*
X186067949Y-90532309D01*
X186067949Y-90532309D02*
X186020330Y-90532309D01*
X186020330Y-90532309D02*
X185948902Y-90508500D01*
X185948902Y-90508500D02*
X185901283Y-90460880D01*
X185901283Y-90460880D02*
X185877473Y-90413261D01*
X185877473Y-90413261D02*
X185853664Y-90318023D01*
X185853664Y-90318023D02*
X185853664Y-90246595D01*
X185853664Y-90246595D02*
X185877473Y-90151357D01*
X185877473Y-90151357D02*
X185901283Y-90103738D01*
X185901283Y-90103738D02*
X185948902Y-90056119D01*
X185948902Y-90056119D02*
X186020330Y-90032309D01*
X186020330Y-90032309D02*
X186067949Y-90032309D01*
X186067949Y-90032309D02*
X186139378Y-90056119D01*
X186139378Y-90056119D02*
X186163187Y-90079928D01*
X186615568Y-90532309D02*
X186377473Y-90532309D01*
X186377473Y-90532309D02*
X186377473Y-90032309D01*
D12*
X161573996Y-80264619D02*
X161240663Y-79788428D01*
X161002568Y-80264619D02*
X161002568Y-79264619D01*
X161002568Y-79264619D02*
X161383520Y-79264619D01*
X161383520Y-79264619D02*
X161478758Y-79312238D01*
X161478758Y-79312238D02*
X161526377Y-79359857D01*
X161526377Y-79359857D02*
X161573996Y-79455095D01*
X161573996Y-79455095D02*
X161573996Y-79597952D01*
X161573996Y-79597952D02*
X161526377Y-79693190D01*
X161526377Y-79693190D02*
X161478758Y-79740809D01*
X161478758Y-79740809D02*
X161383520Y-79788428D01*
X161383520Y-79788428D02*
X161002568Y-79788428D01*
X162193044Y-79264619D02*
X162383520Y-79264619D01*
X162383520Y-79264619D02*
X162478758Y-79312238D01*
X162478758Y-79312238D02*
X162573996Y-79407476D01*
X162573996Y-79407476D02*
X162621615Y-79597952D01*
X162621615Y-79597952D02*
X162621615Y-79931285D01*
X162621615Y-79931285D02*
X162573996Y-80121761D01*
X162573996Y-80121761D02*
X162478758Y-80217000D01*
X162478758Y-80217000D02*
X162383520Y-80264619D01*
X162383520Y-80264619D02*
X162193044Y-80264619D01*
X162193044Y-80264619D02*
X162097806Y-80217000D01*
X162097806Y-80217000D02*
X162002568Y-80121761D01*
X162002568Y-80121761D02*
X161954949Y-79931285D01*
X161954949Y-79931285D02*
X161954949Y-79597952D01*
X161954949Y-79597952D02*
X162002568Y-79407476D01*
X162002568Y-79407476D02*
X162097806Y-79312238D01*
X162097806Y-79312238D02*
X162193044Y-79264619D01*
X162907330Y-79264619D02*
X163478758Y-79264619D01*
X163193044Y-80264619D02*
X163193044Y-79264619D01*
X164573997Y-79740809D02*
X164907330Y-79740809D01*
X165050187Y-80264619D02*
X164573997Y-80264619D01*
X164573997Y-80264619D02*
X164573997Y-79264619D01*
X164573997Y-79264619D02*
X165050187Y-79264619D01*
X165478759Y-80264619D02*
X165478759Y-79264619D01*
X165478759Y-79264619D02*
X166050187Y-80264619D01*
X166050187Y-80264619D02*
X166050187Y-79264619D01*
X167097806Y-80169380D02*
X167050187Y-80217000D01*
X167050187Y-80217000D02*
X166907330Y-80264619D01*
X166907330Y-80264619D02*
X166812092Y-80264619D01*
X166812092Y-80264619D02*
X166669235Y-80217000D01*
X166669235Y-80217000D02*
X166573997Y-80121761D01*
X166573997Y-80121761D02*
X166526378Y-80026523D01*
X166526378Y-80026523D02*
X166478759Y-79836047D01*
X166478759Y-79836047D02*
X166478759Y-79693190D01*
X166478759Y-79693190D02*
X166526378Y-79502714D01*
X166526378Y-79502714D02*
X166573997Y-79407476D01*
X166573997Y-79407476D02*
X166669235Y-79312238D01*
X166669235Y-79312238D02*
X166812092Y-79264619D01*
X166812092Y-79264619D02*
X166907330Y-79264619D01*
X166907330Y-79264619D02*
X167050187Y-79312238D01*
X167050187Y-79312238D02*
X167097806Y-79359857D01*
X167716854Y-79264619D02*
X167907330Y-79264619D01*
X167907330Y-79264619D02*
X168002568Y-79312238D01*
X168002568Y-79312238D02*
X168097806Y-79407476D01*
X168097806Y-79407476D02*
X168145425Y-79597952D01*
X168145425Y-79597952D02*
X168145425Y-79931285D01*
X168145425Y-79931285D02*
X168097806Y-80121761D01*
X168097806Y-80121761D02*
X168002568Y-80217000D01*
X168002568Y-80217000D02*
X167907330Y-80264619D01*
X167907330Y-80264619D02*
X167716854Y-80264619D01*
X167716854Y-80264619D02*
X167621616Y-80217000D01*
X167621616Y-80217000D02*
X167526378Y-80121761D01*
X167526378Y-80121761D02*
X167478759Y-79931285D01*
X167478759Y-79931285D02*
X167478759Y-79597952D01*
X167478759Y-79597952D02*
X167526378Y-79407476D01*
X167526378Y-79407476D02*
X167621616Y-79312238D01*
X167621616Y-79312238D02*
X167716854Y-79264619D01*
X168573997Y-80264619D02*
X168573997Y-79264619D01*
X168573997Y-79264619D02*
X168812092Y-79264619D01*
X168812092Y-79264619D02*
X168954949Y-79312238D01*
X168954949Y-79312238D02*
X169050187Y-79407476D01*
X169050187Y-79407476D02*
X169097806Y-79502714D01*
X169097806Y-79502714D02*
X169145425Y-79693190D01*
X169145425Y-79693190D02*
X169145425Y-79836047D01*
X169145425Y-79836047D02*
X169097806Y-80026523D01*
X169097806Y-80026523D02*
X169050187Y-80121761D01*
X169050187Y-80121761D02*
X168954949Y-80217000D01*
X168954949Y-80217000D02*
X168812092Y-80264619D01*
X168812092Y-80264619D02*
X168573997Y-80264619D01*
X169573997Y-79740809D02*
X169907330Y-79740809D01*
X170050187Y-80264619D02*
X169573997Y-80264619D01*
X169573997Y-80264619D02*
X169573997Y-79264619D01*
X169573997Y-79264619D02*
X170050187Y-79264619D01*
X171050187Y-80264619D02*
X170716854Y-79788428D01*
X170478759Y-80264619D02*
X170478759Y-79264619D01*
X170478759Y-79264619D02*
X170859711Y-79264619D01*
X170859711Y-79264619D02*
X170954949Y-79312238D01*
X170954949Y-79312238D02*
X171002568Y-79359857D01*
X171002568Y-79359857D02*
X171050187Y-79455095D01*
X171050187Y-79455095D02*
X171050187Y-79597952D01*
X171050187Y-79597952D02*
X171002568Y-79693190D01*
X171002568Y-79693190D02*
X170954949Y-79740809D01*
X170954949Y-79740809D02*
X170859711Y-79788428D01*
X170859711Y-79788428D02*
X170478759Y-79788428D01*
D11*
X168501283Y-114141833D02*
X168882236Y-114141833D01*
X168691759Y-114332309D02*
X168691759Y-113951357D01*
X169048903Y-113832309D02*
X169215569Y-114332309D01*
X169215569Y-114332309D02*
X169382236Y-113832309D01*
X169644140Y-113832309D02*
X169739378Y-113832309D01*
X169739378Y-113832309D02*
X169786997Y-113856119D01*
X169786997Y-113856119D02*
X169834616Y-113903738D01*
X169834616Y-113903738D02*
X169858426Y-113998976D01*
X169858426Y-113998976D02*
X169858426Y-114165642D01*
X169858426Y-114165642D02*
X169834616Y-114260880D01*
X169834616Y-114260880D02*
X169786997Y-114308500D01*
X169786997Y-114308500D02*
X169739378Y-114332309D01*
X169739378Y-114332309D02*
X169644140Y-114332309D01*
X169644140Y-114332309D02*
X169596521Y-114308500D01*
X169596521Y-114308500D02*
X169548902Y-114260880D01*
X169548902Y-114260880D02*
X169525093Y-114165642D01*
X169525093Y-114165642D02*
X169525093Y-113998976D01*
X169525093Y-113998976D02*
X169548902Y-113903738D01*
X169548902Y-113903738D02*
X169596521Y-113856119D01*
X169596521Y-113856119D02*
X169644140Y-113832309D01*
X170310807Y-114332309D02*
X170072712Y-114332309D01*
X170072712Y-114332309D02*
X170072712Y-113832309D01*
X159263188Y-100456119D02*
X159215569Y-100432309D01*
X159215569Y-100432309D02*
X159144140Y-100432309D01*
X159144140Y-100432309D02*
X159072712Y-100456119D01*
X159072712Y-100456119D02*
X159025093Y-100503738D01*
X159025093Y-100503738D02*
X159001283Y-100551357D01*
X159001283Y-100551357D02*
X158977474Y-100646595D01*
X158977474Y-100646595D02*
X158977474Y-100718023D01*
X158977474Y-100718023D02*
X159001283Y-100813261D01*
X159001283Y-100813261D02*
X159025093Y-100860880D01*
X159025093Y-100860880D02*
X159072712Y-100908500D01*
X159072712Y-100908500D02*
X159144140Y-100932309D01*
X159144140Y-100932309D02*
X159191759Y-100932309D01*
X159191759Y-100932309D02*
X159263188Y-100908500D01*
X159263188Y-100908500D02*
X159286997Y-100884690D01*
X159286997Y-100884690D02*
X159286997Y-100718023D01*
X159286997Y-100718023D02*
X159191759Y-100718023D01*
X159501283Y-100932309D02*
X159501283Y-100432309D01*
X159501283Y-100432309D02*
X159786997Y-100932309D01*
X159786997Y-100932309D02*
X159786997Y-100432309D01*
X160025093Y-100932309D02*
X160025093Y-100432309D01*
X160025093Y-100432309D02*
X160144141Y-100432309D01*
X160144141Y-100432309D02*
X160215569Y-100456119D01*
X160215569Y-100456119D02*
X160263188Y-100503738D01*
X160263188Y-100503738D02*
X160286998Y-100551357D01*
X160286998Y-100551357D02*
X160310807Y-100646595D01*
X160310807Y-100646595D02*
X160310807Y-100718023D01*
X160310807Y-100718023D02*
X160286998Y-100813261D01*
X160286998Y-100813261D02*
X160263188Y-100860880D01*
X160263188Y-100860880D02*
X160215569Y-100908500D01*
X160215569Y-100908500D02*
X160144141Y-100932309D01*
X160144141Y-100932309D02*
X160025093Y-100932309D01*
D12*
X181940809Y-94864098D02*
X181988428Y-94721241D01*
X181988428Y-94721241D02*
X182036047Y-94673622D01*
X182036047Y-94673622D02*
X182131285Y-94626003D01*
X182131285Y-94626003D02*
X182274142Y-94626003D01*
X182274142Y-94626003D02*
X182369380Y-94673622D01*
X182369380Y-94673622D02*
X182417000Y-94721241D01*
X182417000Y-94721241D02*
X182464619Y-94816479D01*
X182464619Y-94816479D02*
X182464619Y-95197431D01*
X182464619Y-95197431D02*
X181464619Y-95197431D01*
X181464619Y-95197431D02*
X181464619Y-94864098D01*
X181464619Y-94864098D02*
X181512238Y-94768860D01*
X181512238Y-94768860D02*
X181559857Y-94721241D01*
X181559857Y-94721241D02*
X181655095Y-94673622D01*
X181655095Y-94673622D02*
X181750333Y-94673622D01*
X181750333Y-94673622D02*
X181845571Y-94721241D01*
X181845571Y-94721241D02*
X181893190Y-94768860D01*
X181893190Y-94768860D02*
X181940809Y-94864098D01*
X181940809Y-94864098D02*
X181940809Y-95197431D01*
X181464619Y-94340288D02*
X181464619Y-93768860D01*
X182464619Y-94054574D02*
X181464619Y-94054574D01*
X182464619Y-93435526D02*
X181464619Y-93435526D01*
X181464619Y-93435526D02*
X182464619Y-92864098D01*
X182464619Y-92864098D02*
X181464619Y-92864098D01*
X181464619Y-92483145D02*
X181464619Y-91864098D01*
X181464619Y-91864098D02*
X181845571Y-92197431D01*
X181845571Y-92197431D02*
X181845571Y-92054574D01*
X181845571Y-92054574D02*
X181893190Y-91959336D01*
X181893190Y-91959336D02*
X181940809Y-91911717D01*
X181940809Y-91911717D02*
X182036047Y-91864098D01*
X182036047Y-91864098D02*
X182274142Y-91864098D01*
X182274142Y-91864098D02*
X182369380Y-91911717D01*
X182369380Y-91911717D02*
X182417000Y-91959336D01*
X182417000Y-91959336D02*
X182464619Y-92054574D01*
X182464619Y-92054574D02*
X182464619Y-92340288D01*
X182464619Y-92340288D02*
X182417000Y-92435526D01*
X182417000Y-92435526D02*
X182369380Y-92483145D01*
X138002568Y-99864619D02*
X138002568Y-98864619D01*
X138002568Y-98864619D02*
X138573996Y-99864619D01*
X138573996Y-99864619D02*
X138573996Y-98864619D01*
X139050187Y-99340809D02*
X139383520Y-99340809D01*
X139526377Y-99864619D02*
X139050187Y-99864619D01*
X139050187Y-99864619D02*
X139050187Y-98864619D01*
X139050187Y-98864619D02*
X139526377Y-98864619D01*
X140145425Y-98864619D02*
X140335901Y-98864619D01*
X140335901Y-98864619D02*
X140431139Y-98912238D01*
X140431139Y-98912238D02*
X140526377Y-99007476D01*
X140526377Y-99007476D02*
X140573996Y-99197952D01*
X140573996Y-99197952D02*
X140573996Y-99531285D01*
X140573996Y-99531285D02*
X140526377Y-99721761D01*
X140526377Y-99721761D02*
X140431139Y-99817000D01*
X140431139Y-99817000D02*
X140335901Y-99864619D01*
X140335901Y-99864619D02*
X140145425Y-99864619D01*
X140145425Y-99864619D02*
X140050187Y-99817000D01*
X140050187Y-99817000D02*
X139954949Y-99721761D01*
X139954949Y-99721761D02*
X139907330Y-99531285D01*
X139907330Y-99531285D02*
X139907330Y-99197952D01*
X139907330Y-99197952D02*
X139954949Y-99007476D01*
X139954949Y-99007476D02*
X140050187Y-98912238D01*
X140050187Y-98912238D02*
X140145425Y-98864619D01*
X141002568Y-99864619D02*
X141002568Y-98864619D01*
X141002568Y-98864619D02*
X141383520Y-98864619D01*
X141383520Y-98864619D02*
X141478758Y-98912238D01*
X141478758Y-98912238D02*
X141526377Y-98959857D01*
X141526377Y-98959857D02*
X141573996Y-99055095D01*
X141573996Y-99055095D02*
X141573996Y-99197952D01*
X141573996Y-99197952D02*
X141526377Y-99293190D01*
X141526377Y-99293190D02*
X141478758Y-99340809D01*
X141478758Y-99340809D02*
X141383520Y-99388428D01*
X141383520Y-99388428D02*
X141002568Y-99388428D01*
X142002568Y-99864619D02*
X142002568Y-98864619D01*
X142383520Y-98864619D02*
X143050186Y-99864619D01*
X143050186Y-98864619D02*
X142383520Y-99864619D01*
X143431139Y-99340809D02*
X143764472Y-99340809D01*
X143907329Y-99864619D02*
X143431139Y-99864619D01*
X143431139Y-99864619D02*
X143431139Y-98864619D01*
X143431139Y-98864619D02*
X143907329Y-98864619D01*
X144812091Y-99864619D02*
X144335901Y-99864619D01*
X144335901Y-99864619D02*
X144335901Y-98864619D01*
D11*
X190639378Y-94632309D02*
X190401283Y-94632309D01*
X190401283Y-94632309D02*
X190377474Y-94870404D01*
X190377474Y-94870404D02*
X190401283Y-94846595D01*
X190401283Y-94846595D02*
X190448902Y-94822785D01*
X190448902Y-94822785D02*
X190567950Y-94822785D01*
X190567950Y-94822785D02*
X190615569Y-94846595D01*
X190615569Y-94846595D02*
X190639378Y-94870404D01*
X190639378Y-94870404D02*
X190663188Y-94918023D01*
X190663188Y-94918023D02*
X190663188Y-95037071D01*
X190663188Y-95037071D02*
X190639378Y-95084690D01*
X190639378Y-95084690D02*
X190615569Y-95108500D01*
X190615569Y-95108500D02*
X190567950Y-95132309D01*
X190567950Y-95132309D02*
X190448902Y-95132309D01*
X190448902Y-95132309D02*
X190401283Y-95108500D01*
X190401283Y-95108500D02*
X190377474Y-95084690D01*
X190806045Y-94632309D02*
X190972711Y-95132309D01*
X190972711Y-95132309D02*
X191139378Y-94632309D01*
X190663188Y-90056119D02*
X190615569Y-90032309D01*
X190615569Y-90032309D02*
X190544140Y-90032309D01*
X190544140Y-90032309D02*
X190472712Y-90056119D01*
X190472712Y-90056119D02*
X190425093Y-90103738D01*
X190425093Y-90103738D02*
X190401283Y-90151357D01*
X190401283Y-90151357D02*
X190377474Y-90246595D01*
X190377474Y-90246595D02*
X190377474Y-90318023D01*
X190377474Y-90318023D02*
X190401283Y-90413261D01*
X190401283Y-90413261D02*
X190425093Y-90460880D01*
X190425093Y-90460880D02*
X190472712Y-90508500D01*
X190472712Y-90508500D02*
X190544140Y-90532309D01*
X190544140Y-90532309D02*
X190591759Y-90532309D01*
X190591759Y-90532309D02*
X190663188Y-90508500D01*
X190663188Y-90508500D02*
X190686997Y-90484690D01*
X190686997Y-90484690D02*
X190686997Y-90318023D01*
X190686997Y-90318023D02*
X190591759Y-90318023D01*
X190901283Y-90532309D02*
X190901283Y-90032309D01*
X190901283Y-90032309D02*
X191186997Y-90532309D01*
X191186997Y-90532309D02*
X191186997Y-90032309D01*
X191425093Y-90532309D02*
X191425093Y-90032309D01*
X191425093Y-90032309D02*
X191544141Y-90032309D01*
X191544141Y-90032309D02*
X191615569Y-90056119D01*
X191615569Y-90056119D02*
X191663188Y-90103738D01*
X191663188Y-90103738D02*
X191686998Y-90151357D01*
X191686998Y-90151357D02*
X191710807Y-90246595D01*
X191710807Y-90246595D02*
X191710807Y-90318023D01*
X191710807Y-90318023D02*
X191686998Y-90413261D01*
X191686998Y-90413261D02*
X191663188Y-90460880D01*
X191663188Y-90460880D02*
X191615569Y-90508500D01*
X191615569Y-90508500D02*
X191544141Y-90532309D01*
X191544141Y-90532309D02*
X191425093Y-90532309D01*
X192953664Y-90032309D02*
X193263188Y-90032309D01*
X193263188Y-90032309D02*
X193096521Y-90222785D01*
X193096521Y-90222785D02*
X193167950Y-90222785D01*
X193167950Y-90222785D02*
X193215569Y-90246595D01*
X193215569Y-90246595D02*
X193239378Y-90270404D01*
X193239378Y-90270404D02*
X193263188Y-90318023D01*
X193263188Y-90318023D02*
X193263188Y-90437071D01*
X193263188Y-90437071D02*
X193239378Y-90484690D01*
X193239378Y-90484690D02*
X193215569Y-90508500D01*
X193215569Y-90508500D02*
X193167950Y-90532309D01*
X193167950Y-90532309D02*
X193025093Y-90532309D01*
X193025093Y-90532309D02*
X192977474Y-90508500D01*
X192977474Y-90508500D02*
X192953664Y-90484690D01*
X193406045Y-90032309D02*
X193572711Y-90532309D01*
X193572711Y-90532309D02*
X193739378Y-90032309D01*
X193858425Y-90032309D02*
X194167949Y-90032309D01*
X194167949Y-90032309D02*
X194001282Y-90222785D01*
X194001282Y-90222785D02*
X194072711Y-90222785D01*
X194072711Y-90222785D02*
X194120330Y-90246595D01*
X194120330Y-90246595D02*
X194144139Y-90270404D01*
X194144139Y-90270404D02*
X194167949Y-90318023D01*
X194167949Y-90318023D02*
X194167949Y-90437071D01*
X194167949Y-90437071D02*
X194144139Y-90484690D01*
X194144139Y-90484690D02*
X194120330Y-90508500D01*
X194120330Y-90508500D02*
X194072711Y-90532309D01*
X194072711Y-90532309D02*
X193929854Y-90532309D01*
X193929854Y-90532309D02*
X193882235Y-90508500D01*
X193882235Y-90508500D02*
X193858425Y-90484690D01*
D12*
X190002568Y-102464619D02*
X190002568Y-103274142D01*
X190002568Y-103274142D02*
X190050187Y-103369380D01*
X190050187Y-103369380D02*
X190097806Y-103417000D01*
X190097806Y-103417000D02*
X190193044Y-103464619D01*
X190193044Y-103464619D02*
X190383520Y-103464619D01*
X190383520Y-103464619D02*
X190478758Y-103417000D01*
X190478758Y-103417000D02*
X190526377Y-103369380D01*
X190526377Y-103369380D02*
X190573996Y-103274142D01*
X190573996Y-103274142D02*
X190573996Y-102464619D01*
X191002568Y-103417000D02*
X191145425Y-103464619D01*
X191145425Y-103464619D02*
X191383520Y-103464619D01*
X191383520Y-103464619D02*
X191478758Y-103417000D01*
X191478758Y-103417000D02*
X191526377Y-103369380D01*
X191526377Y-103369380D02*
X191573996Y-103274142D01*
X191573996Y-103274142D02*
X191573996Y-103178904D01*
X191573996Y-103178904D02*
X191526377Y-103083666D01*
X191526377Y-103083666D02*
X191478758Y-103036047D01*
X191478758Y-103036047D02*
X191383520Y-102988428D01*
X191383520Y-102988428D02*
X191193044Y-102940809D01*
X191193044Y-102940809D02*
X191097806Y-102893190D01*
X191097806Y-102893190D02*
X191050187Y-102845571D01*
X191050187Y-102845571D02*
X191002568Y-102750333D01*
X191002568Y-102750333D02*
X191002568Y-102655095D01*
X191002568Y-102655095D02*
X191050187Y-102559857D01*
X191050187Y-102559857D02*
X191097806Y-102512238D01*
X191097806Y-102512238D02*
X191193044Y-102464619D01*
X191193044Y-102464619D02*
X191431139Y-102464619D01*
X191431139Y-102464619D02*
X191573996Y-102512238D01*
X192335901Y-102940809D02*
X192478758Y-102988428D01*
X192478758Y-102988428D02*
X192526377Y-103036047D01*
X192526377Y-103036047D02*
X192573996Y-103131285D01*
X192573996Y-103131285D02*
X192573996Y-103274142D01*
X192573996Y-103274142D02*
X192526377Y-103369380D01*
X192526377Y-103369380D02*
X192478758Y-103417000D01*
X192478758Y-103417000D02*
X192383520Y-103464619D01*
X192383520Y-103464619D02*
X192002568Y-103464619D01*
X192002568Y-103464619D02*
X192002568Y-102464619D01*
X192002568Y-102464619D02*
X192335901Y-102464619D01*
X192335901Y-102464619D02*
X192431139Y-102512238D01*
X192431139Y-102512238D02*
X192478758Y-102559857D01*
X192478758Y-102559857D02*
X192526377Y-102655095D01*
X192526377Y-102655095D02*
X192526377Y-102750333D01*
X192526377Y-102750333D02*
X192478758Y-102845571D01*
X192478758Y-102845571D02*
X192431139Y-102893190D01*
X192431139Y-102893190D02*
X192335901Y-102940809D01*
X192335901Y-102940809D02*
X192002568Y-102940809D01*
D11*
X193063188Y-94656119D02*
X193015569Y-94632309D01*
X193015569Y-94632309D02*
X192944140Y-94632309D01*
X192944140Y-94632309D02*
X192872712Y-94656119D01*
X192872712Y-94656119D02*
X192825093Y-94703738D01*
X192825093Y-94703738D02*
X192801283Y-94751357D01*
X192801283Y-94751357D02*
X192777474Y-94846595D01*
X192777474Y-94846595D02*
X192777474Y-94918023D01*
X192777474Y-94918023D02*
X192801283Y-95013261D01*
X192801283Y-95013261D02*
X192825093Y-95060880D01*
X192825093Y-95060880D02*
X192872712Y-95108500D01*
X192872712Y-95108500D02*
X192944140Y-95132309D01*
X192944140Y-95132309D02*
X192991759Y-95132309D01*
X192991759Y-95132309D02*
X193063188Y-95108500D01*
X193063188Y-95108500D02*
X193086997Y-95084690D01*
X193086997Y-95084690D02*
X193086997Y-94918023D01*
X193086997Y-94918023D02*
X192991759Y-94918023D01*
X193301283Y-95132309D02*
X193301283Y-94632309D01*
X193301283Y-94632309D02*
X193586997Y-95132309D01*
X193586997Y-95132309D02*
X193586997Y-94632309D01*
X193825093Y-95132309D02*
X193825093Y-94632309D01*
X193825093Y-94632309D02*
X193944141Y-94632309D01*
X193944141Y-94632309D02*
X194015569Y-94656119D01*
X194015569Y-94656119D02*
X194063188Y-94703738D01*
X194063188Y-94703738D02*
X194086998Y-94751357D01*
X194086998Y-94751357D02*
X194110807Y-94846595D01*
X194110807Y-94846595D02*
X194110807Y-94918023D01*
X194110807Y-94918023D02*
X194086998Y-95013261D01*
X194086998Y-95013261D02*
X194063188Y-95060880D01*
X194063188Y-95060880D02*
X194015569Y-95108500D01*
X194015569Y-95108500D02*
X193944141Y-95132309D01*
X193944141Y-95132309D02*
X193825093Y-95132309D01*
X160263188Y-112456119D02*
X160215569Y-112432309D01*
X160215569Y-112432309D02*
X160144140Y-112432309D01*
X160144140Y-112432309D02*
X160072712Y-112456119D01*
X160072712Y-112456119D02*
X160025093Y-112503738D01*
X160025093Y-112503738D02*
X160001283Y-112551357D01*
X160001283Y-112551357D02*
X159977474Y-112646595D01*
X159977474Y-112646595D02*
X159977474Y-112718023D01*
X159977474Y-112718023D02*
X160001283Y-112813261D01*
X160001283Y-112813261D02*
X160025093Y-112860880D01*
X160025093Y-112860880D02*
X160072712Y-112908500D01*
X160072712Y-112908500D02*
X160144140Y-112932309D01*
X160144140Y-112932309D02*
X160191759Y-112932309D01*
X160191759Y-112932309D02*
X160263188Y-112908500D01*
X160263188Y-112908500D02*
X160286997Y-112884690D01*
X160286997Y-112884690D02*
X160286997Y-112718023D01*
X160286997Y-112718023D02*
X160191759Y-112718023D01*
X160501283Y-112932309D02*
X160501283Y-112432309D01*
X160501283Y-112432309D02*
X160786997Y-112932309D01*
X160786997Y-112932309D02*
X160786997Y-112432309D01*
X161025093Y-112932309D02*
X161025093Y-112432309D01*
X161025093Y-112432309D02*
X161144141Y-112432309D01*
X161144141Y-112432309D02*
X161215569Y-112456119D01*
X161215569Y-112456119D02*
X161263188Y-112503738D01*
X161263188Y-112503738D02*
X161286998Y-112551357D01*
X161286998Y-112551357D02*
X161310807Y-112646595D01*
X161310807Y-112646595D02*
X161310807Y-112718023D01*
X161310807Y-112718023D02*
X161286998Y-112813261D01*
X161286998Y-112813261D02*
X161263188Y-112860880D01*
X161263188Y-112860880D02*
X161215569Y-112908500D01*
X161215569Y-112908500D02*
X161144141Y-112932309D01*
X161144141Y-112932309D02*
X161025093Y-112932309D01*
D12*
X157154949Y-108578904D02*
X157631139Y-108578904D01*
X157059711Y-108864619D02*
X157393044Y-107864619D01*
X157393044Y-107864619D02*
X157726377Y-108864619D01*
X158059711Y-108864619D02*
X158059711Y-107864619D01*
X158059711Y-107864619D02*
X158393044Y-108578904D01*
X158393044Y-108578904D02*
X158726377Y-107864619D01*
X158726377Y-107864619D02*
X158726377Y-108864619D01*
X159202568Y-108864619D02*
X159202568Y-107864619D01*
X159202568Y-107864619D02*
X159583520Y-107864619D01*
X159583520Y-107864619D02*
X159678758Y-107912238D01*
X159678758Y-107912238D02*
X159726377Y-107959857D01*
X159726377Y-107959857D02*
X159773996Y-108055095D01*
X159773996Y-108055095D02*
X159773996Y-108197952D01*
X159773996Y-108197952D02*
X159726377Y-108293190D01*
X159726377Y-108293190D02*
X159678758Y-108340809D01*
X159678758Y-108340809D02*
X159583520Y-108388428D01*
X159583520Y-108388428D02*
X159202568Y-108388428D01*
X160678758Y-108864619D02*
X160202568Y-108864619D01*
X160202568Y-108864619D02*
X160202568Y-107864619D01*
X161012092Y-108864619D02*
X161012092Y-107864619D01*
X161821615Y-108340809D02*
X161488282Y-108340809D01*
X161488282Y-108864619D02*
X161488282Y-107864619D01*
X161488282Y-107864619D02*
X161964472Y-107864619D01*
X162345425Y-108864619D02*
X162345425Y-107864619D01*
X162821615Y-108340809D02*
X163154948Y-108340809D01*
X163297805Y-108864619D02*
X162821615Y-108864619D01*
X162821615Y-108864619D02*
X162821615Y-107864619D01*
X162821615Y-107864619D02*
X163297805Y-107864619D01*
X164297805Y-108864619D02*
X163964472Y-108388428D01*
X163726377Y-108864619D02*
X163726377Y-107864619D01*
X163726377Y-107864619D02*
X164107329Y-107864619D01*
X164107329Y-107864619D02*
X164202567Y-107912238D01*
X164202567Y-107912238D02*
X164250186Y-107959857D01*
X164250186Y-107959857D02*
X164297805Y-108055095D01*
X164297805Y-108055095D02*
X164297805Y-108197952D01*
X164297805Y-108197952D02*
X164250186Y-108293190D01*
X164250186Y-108293190D02*
X164202567Y-108340809D01*
X164202567Y-108340809D02*
X164107329Y-108388428D01*
X164107329Y-108388428D02*
X163726377Y-108388428D01*
D11*
X147086997Y-84464802D02*
X147063188Y-84488612D01*
X147063188Y-84488612D02*
X146991759Y-84512421D01*
X146991759Y-84512421D02*
X146944140Y-84512421D01*
X146944140Y-84512421D02*
X146872712Y-84488612D01*
X146872712Y-84488612D02*
X146825093Y-84440992D01*
X146825093Y-84440992D02*
X146801283Y-84393373D01*
X146801283Y-84393373D02*
X146777474Y-84298135D01*
X146777474Y-84298135D02*
X146777474Y-84226707D01*
X146777474Y-84226707D02*
X146801283Y-84131469D01*
X146801283Y-84131469D02*
X146825093Y-84083850D01*
X146825093Y-84083850D02*
X146872712Y-84036231D01*
X146872712Y-84036231D02*
X146944140Y-84012421D01*
X146944140Y-84012421D02*
X146991759Y-84012421D01*
X146991759Y-84012421D02*
X147063188Y-84036231D01*
X147063188Y-84036231D02*
X147086997Y-84060040D01*
X147539378Y-84512421D02*
X147301283Y-84512421D01*
X147301283Y-84512421D02*
X147301283Y-84012421D01*
X147706045Y-84512421D02*
X147706045Y-84012421D01*
X147991759Y-84512421D02*
X147777474Y-84226707D01*
X147991759Y-84012421D02*
X147706045Y-84298135D01*
X149301282Y-84012421D02*
X149420330Y-84512421D01*
X149420330Y-84512421D02*
X149515568Y-84155278D01*
X149515568Y-84155278D02*
X149610806Y-84512421D01*
X149610806Y-84512421D02*
X149729854Y-84012421D01*
X149896521Y-84488612D02*
X149967949Y-84512421D01*
X149967949Y-84512421D02*
X150086997Y-84512421D01*
X150086997Y-84512421D02*
X150134616Y-84488612D01*
X150134616Y-84488612D02*
X150158425Y-84464802D01*
X150158425Y-84464802D02*
X150182235Y-84417183D01*
X150182235Y-84417183D02*
X150182235Y-84369564D01*
X150182235Y-84369564D02*
X150158425Y-84321945D01*
X150158425Y-84321945D02*
X150134616Y-84298135D01*
X150134616Y-84298135D02*
X150086997Y-84274326D01*
X150086997Y-84274326D02*
X149991759Y-84250516D01*
X149991759Y-84250516D02*
X149944140Y-84226707D01*
X149944140Y-84226707D02*
X149920330Y-84202897D01*
X149920330Y-84202897D02*
X149896521Y-84155278D01*
X149896521Y-84155278D02*
X149896521Y-84107659D01*
X149896521Y-84107659D02*
X149920330Y-84060040D01*
X149920330Y-84060040D02*
X149944140Y-84036231D01*
X149944140Y-84036231D02*
X149991759Y-84012421D01*
X149991759Y-84012421D02*
X150110806Y-84012421D01*
X150110806Y-84012421D02*
X150182235Y-84036231D01*
X151801281Y-84036231D02*
X151753662Y-84012421D01*
X151753662Y-84012421D02*
X151682233Y-84012421D01*
X151682233Y-84012421D02*
X151610805Y-84036231D01*
X151610805Y-84036231D02*
X151563186Y-84083850D01*
X151563186Y-84083850D02*
X151539376Y-84131469D01*
X151539376Y-84131469D02*
X151515567Y-84226707D01*
X151515567Y-84226707D02*
X151515567Y-84298135D01*
X151515567Y-84298135D02*
X151539376Y-84393373D01*
X151539376Y-84393373D02*
X151563186Y-84440992D01*
X151563186Y-84440992D02*
X151610805Y-84488612D01*
X151610805Y-84488612D02*
X151682233Y-84512421D01*
X151682233Y-84512421D02*
X151729852Y-84512421D01*
X151729852Y-84512421D02*
X151801281Y-84488612D01*
X151801281Y-84488612D02*
X151825090Y-84464802D01*
X151825090Y-84464802D02*
X151825090Y-84298135D01*
X151825090Y-84298135D02*
X151729852Y-84298135D01*
X152039376Y-84512421D02*
X152039376Y-84012421D01*
X152039376Y-84012421D02*
X152325090Y-84512421D01*
X152325090Y-84512421D02*
X152325090Y-84012421D01*
X152563186Y-84512421D02*
X152563186Y-84012421D01*
X152563186Y-84012421D02*
X152682234Y-84012421D01*
X152682234Y-84012421D02*
X152753662Y-84036231D01*
X152753662Y-84036231D02*
X152801281Y-84083850D01*
X152801281Y-84083850D02*
X152825091Y-84131469D01*
X152825091Y-84131469D02*
X152848900Y-84226707D01*
X152848900Y-84226707D02*
X152848900Y-84298135D01*
X152848900Y-84298135D02*
X152825091Y-84393373D01*
X152825091Y-84393373D02*
X152801281Y-84440992D01*
X152801281Y-84440992D02*
X152753662Y-84488612D01*
X152753662Y-84488612D02*
X152682234Y-84512421D01*
X152682234Y-84512421D02*
X152563186Y-84512421D01*
X146777474Y-87708500D02*
X146848902Y-87732309D01*
X146848902Y-87732309D02*
X146967950Y-87732309D01*
X146967950Y-87732309D02*
X147015569Y-87708500D01*
X147015569Y-87708500D02*
X147039378Y-87684690D01*
X147039378Y-87684690D02*
X147063188Y-87637071D01*
X147063188Y-87637071D02*
X147063188Y-87589452D01*
X147063188Y-87589452D02*
X147039378Y-87541833D01*
X147039378Y-87541833D02*
X147015569Y-87518023D01*
X147015569Y-87518023D02*
X146967950Y-87494214D01*
X146967950Y-87494214D02*
X146872712Y-87470404D01*
X146872712Y-87470404D02*
X146825093Y-87446595D01*
X146825093Y-87446595D02*
X146801283Y-87422785D01*
X146801283Y-87422785D02*
X146777474Y-87375166D01*
X146777474Y-87375166D02*
X146777474Y-87327547D01*
X146777474Y-87327547D02*
X146801283Y-87279928D01*
X146801283Y-87279928D02*
X146825093Y-87256119D01*
X146825093Y-87256119D02*
X146872712Y-87232309D01*
X146872712Y-87232309D02*
X146991759Y-87232309D01*
X146991759Y-87232309D02*
X147063188Y-87256119D01*
X147277473Y-87732309D02*
X147277473Y-87232309D01*
X147277473Y-87232309D02*
X147396521Y-87232309D01*
X147396521Y-87232309D02*
X147467949Y-87256119D01*
X147467949Y-87256119D02*
X147515568Y-87303738D01*
X147515568Y-87303738D02*
X147539378Y-87351357D01*
X147539378Y-87351357D02*
X147563187Y-87446595D01*
X147563187Y-87446595D02*
X147563187Y-87518023D01*
X147563187Y-87518023D02*
X147539378Y-87613261D01*
X147539378Y-87613261D02*
X147515568Y-87660880D01*
X147515568Y-87660880D02*
X147467949Y-87708500D01*
X147467949Y-87708500D02*
X147396521Y-87732309D01*
X147396521Y-87732309D02*
X147277473Y-87732309D01*
X148872710Y-87232309D02*
X149182234Y-87232309D01*
X149182234Y-87232309D02*
X149015567Y-87422785D01*
X149015567Y-87422785D02*
X149086996Y-87422785D01*
X149086996Y-87422785D02*
X149134615Y-87446595D01*
X149134615Y-87446595D02*
X149158424Y-87470404D01*
X149158424Y-87470404D02*
X149182234Y-87518023D01*
X149182234Y-87518023D02*
X149182234Y-87637071D01*
X149182234Y-87637071D02*
X149158424Y-87684690D01*
X149158424Y-87684690D02*
X149134615Y-87708500D01*
X149134615Y-87708500D02*
X149086996Y-87732309D01*
X149086996Y-87732309D02*
X148944139Y-87732309D01*
X148944139Y-87732309D02*
X148896520Y-87708500D01*
X148896520Y-87708500D02*
X148872710Y-87684690D01*
X149325091Y-87232309D02*
X149491757Y-87732309D01*
X149491757Y-87732309D02*
X149658424Y-87232309D01*
X149777471Y-87232309D02*
X150086995Y-87232309D01*
X150086995Y-87232309D02*
X149920328Y-87422785D01*
X149920328Y-87422785D02*
X149991757Y-87422785D01*
X149991757Y-87422785D02*
X150039376Y-87446595D01*
X150039376Y-87446595D02*
X150063185Y-87470404D01*
X150063185Y-87470404D02*
X150086995Y-87518023D01*
X150086995Y-87518023D02*
X150086995Y-87637071D01*
X150086995Y-87637071D02*
X150063185Y-87684690D01*
X150063185Y-87684690D02*
X150039376Y-87708500D01*
X150039376Y-87708500D02*
X149991757Y-87732309D01*
X149991757Y-87732309D02*
X149848900Y-87732309D01*
X149848900Y-87732309D02*
X149801281Y-87708500D01*
X149801281Y-87708500D02*
X149777471Y-87684690D01*
X151706041Y-87256119D02*
X151658422Y-87232309D01*
X151658422Y-87232309D02*
X151586993Y-87232309D01*
X151586993Y-87232309D02*
X151515565Y-87256119D01*
X151515565Y-87256119D02*
X151467946Y-87303738D01*
X151467946Y-87303738D02*
X151444136Y-87351357D01*
X151444136Y-87351357D02*
X151420327Y-87446595D01*
X151420327Y-87446595D02*
X151420327Y-87518023D01*
X151420327Y-87518023D02*
X151444136Y-87613261D01*
X151444136Y-87613261D02*
X151467946Y-87660880D01*
X151467946Y-87660880D02*
X151515565Y-87708500D01*
X151515565Y-87708500D02*
X151586993Y-87732309D01*
X151586993Y-87732309D02*
X151634612Y-87732309D01*
X151634612Y-87732309D02*
X151706041Y-87708500D01*
X151706041Y-87708500D02*
X151729850Y-87684690D01*
X151729850Y-87684690D02*
X151729850Y-87518023D01*
X151729850Y-87518023D02*
X151634612Y-87518023D01*
X151944136Y-87732309D02*
X151944136Y-87232309D01*
X151944136Y-87232309D02*
X152229850Y-87732309D01*
X152229850Y-87732309D02*
X152229850Y-87232309D01*
X152467946Y-87732309D02*
X152467946Y-87232309D01*
X152467946Y-87232309D02*
X152586994Y-87232309D01*
X152586994Y-87232309D02*
X152658422Y-87256119D01*
X152658422Y-87256119D02*
X152706041Y-87303738D01*
X152706041Y-87303738D02*
X152729851Y-87351357D01*
X152729851Y-87351357D02*
X152753660Y-87446595D01*
X152753660Y-87446595D02*
X152753660Y-87518023D01*
X152753660Y-87518023D02*
X152729851Y-87613261D01*
X152729851Y-87613261D02*
X152706041Y-87660880D01*
X152706041Y-87660880D02*
X152658422Y-87708500D01*
X152658422Y-87708500D02*
X152586994Y-87732309D01*
X152586994Y-87732309D02*
X152467946Y-87732309D01*
X158039378Y-112432309D02*
X157801283Y-112432309D01*
X157801283Y-112432309D02*
X157777474Y-112670404D01*
X157777474Y-112670404D02*
X157801283Y-112646595D01*
X157801283Y-112646595D02*
X157848902Y-112622785D01*
X157848902Y-112622785D02*
X157967950Y-112622785D01*
X157967950Y-112622785D02*
X158015569Y-112646595D01*
X158015569Y-112646595D02*
X158039378Y-112670404D01*
X158039378Y-112670404D02*
X158063188Y-112718023D01*
X158063188Y-112718023D02*
X158063188Y-112837071D01*
X158063188Y-112837071D02*
X158039378Y-112884690D01*
X158039378Y-112884690D02*
X158015569Y-112908500D01*
X158015569Y-112908500D02*
X157967950Y-112932309D01*
X157967950Y-112932309D02*
X157848902Y-112932309D01*
X157848902Y-112932309D02*
X157801283Y-112908500D01*
X157801283Y-112908500D02*
X157777474Y-112884690D01*
X158206045Y-112432309D02*
X158372711Y-112932309D01*
X158372711Y-112932309D02*
X158539378Y-112432309D01*
D12*
X151573996Y-111464619D02*
X151240663Y-110988428D01*
X151002568Y-111464619D02*
X151002568Y-110464619D01*
X151002568Y-110464619D02*
X151383520Y-110464619D01*
X151383520Y-110464619D02*
X151478758Y-110512238D01*
X151478758Y-110512238D02*
X151526377Y-110559857D01*
X151526377Y-110559857D02*
X151573996Y-110655095D01*
X151573996Y-110655095D02*
X151573996Y-110797952D01*
X151573996Y-110797952D02*
X151526377Y-110893190D01*
X151526377Y-110893190D02*
X151478758Y-110940809D01*
X151478758Y-110940809D02*
X151383520Y-110988428D01*
X151383520Y-110988428D02*
X151002568Y-110988428D01*
X151907330Y-110464619D02*
X152573996Y-111464619D01*
X152573996Y-110464619D02*
X151907330Y-111464619D01*
X151535901Y-137740809D02*
X151678758Y-137788428D01*
X151678758Y-137788428D02*
X151726377Y-137836047D01*
X151726377Y-137836047D02*
X151773996Y-137931285D01*
X151773996Y-137931285D02*
X151773996Y-138074142D01*
X151773996Y-138074142D02*
X151726377Y-138169380D01*
X151726377Y-138169380D02*
X151678758Y-138217000D01*
X151678758Y-138217000D02*
X151583520Y-138264619D01*
X151583520Y-138264619D02*
X151202568Y-138264619D01*
X151202568Y-138264619D02*
X151202568Y-137264619D01*
X151202568Y-137264619D02*
X151535901Y-137264619D01*
X151535901Y-137264619D02*
X151631139Y-137312238D01*
X151631139Y-137312238D02*
X151678758Y-137359857D01*
X151678758Y-137359857D02*
X151726377Y-137455095D01*
X151726377Y-137455095D02*
X151726377Y-137550333D01*
X151726377Y-137550333D02*
X151678758Y-137645571D01*
X151678758Y-137645571D02*
X151631139Y-137693190D01*
X151631139Y-137693190D02*
X151535901Y-137740809D01*
X151535901Y-137740809D02*
X151202568Y-137740809D01*
X152393044Y-137264619D02*
X152583520Y-137264619D01*
X152583520Y-137264619D02*
X152678758Y-137312238D01*
X152678758Y-137312238D02*
X152773996Y-137407476D01*
X152773996Y-137407476D02*
X152821615Y-137597952D01*
X152821615Y-137597952D02*
X152821615Y-137931285D01*
X152821615Y-137931285D02*
X152773996Y-138121761D01*
X152773996Y-138121761D02*
X152678758Y-138217000D01*
X152678758Y-138217000D02*
X152583520Y-138264619D01*
X152583520Y-138264619D02*
X152393044Y-138264619D01*
X152393044Y-138264619D02*
X152297806Y-138217000D01*
X152297806Y-138217000D02*
X152202568Y-138121761D01*
X152202568Y-138121761D02*
X152154949Y-137931285D01*
X152154949Y-137931285D02*
X152154949Y-137597952D01*
X152154949Y-137597952D02*
X152202568Y-137407476D01*
X152202568Y-137407476D02*
X152297806Y-137312238D01*
X152297806Y-137312238D02*
X152393044Y-137264619D01*
X153440663Y-137264619D02*
X153631139Y-137264619D01*
X153631139Y-137264619D02*
X153726377Y-137312238D01*
X153726377Y-137312238D02*
X153821615Y-137407476D01*
X153821615Y-137407476D02*
X153869234Y-137597952D01*
X153869234Y-137597952D02*
X153869234Y-137931285D01*
X153869234Y-137931285D02*
X153821615Y-138121761D01*
X153821615Y-138121761D02*
X153726377Y-138217000D01*
X153726377Y-138217000D02*
X153631139Y-138264619D01*
X153631139Y-138264619D02*
X153440663Y-138264619D01*
X153440663Y-138264619D02*
X153345425Y-138217000D01*
X153345425Y-138217000D02*
X153250187Y-138121761D01*
X153250187Y-138121761D02*
X153202568Y-137931285D01*
X153202568Y-137931285D02*
X153202568Y-137597952D01*
X153202568Y-137597952D02*
X153250187Y-137407476D01*
X153250187Y-137407476D02*
X153345425Y-137312238D01*
X153345425Y-137312238D02*
X153440663Y-137264619D01*
X154154949Y-137264619D02*
X154726377Y-137264619D01*
X154440663Y-138264619D02*
X154440663Y-137264619D01*
D11*
X156453664Y-100432309D02*
X156763188Y-100432309D01*
X156763188Y-100432309D02*
X156596521Y-100622785D01*
X156596521Y-100622785D02*
X156667950Y-100622785D01*
X156667950Y-100622785D02*
X156715569Y-100646595D01*
X156715569Y-100646595D02*
X156739378Y-100670404D01*
X156739378Y-100670404D02*
X156763188Y-100718023D01*
X156763188Y-100718023D02*
X156763188Y-100837071D01*
X156763188Y-100837071D02*
X156739378Y-100884690D01*
X156739378Y-100884690D02*
X156715569Y-100908500D01*
X156715569Y-100908500D02*
X156667950Y-100932309D01*
X156667950Y-100932309D02*
X156525093Y-100932309D01*
X156525093Y-100932309D02*
X156477474Y-100908500D01*
X156477474Y-100908500D02*
X156453664Y-100884690D01*
X156906045Y-100432309D02*
X157072711Y-100932309D01*
X157072711Y-100932309D02*
X157239378Y-100432309D01*
X157358425Y-100432309D02*
X157667949Y-100432309D01*
X157667949Y-100432309D02*
X157501282Y-100622785D01*
X157501282Y-100622785D02*
X157572711Y-100622785D01*
X157572711Y-100622785D02*
X157620330Y-100646595D01*
X157620330Y-100646595D02*
X157644139Y-100670404D01*
X157644139Y-100670404D02*
X157667949Y-100718023D01*
X157667949Y-100718023D02*
X157667949Y-100837071D01*
X157667949Y-100837071D02*
X157644139Y-100884690D01*
X157644139Y-100884690D02*
X157620330Y-100908500D01*
X157620330Y-100908500D02*
X157572711Y-100932309D01*
X157572711Y-100932309D02*
X157429854Y-100932309D01*
X157429854Y-100932309D02*
X157382235Y-100908500D01*
X157382235Y-100908500D02*
X157358425Y-100884690D01*
D12*
X179173996Y-138264619D02*
X178840663Y-137788428D01*
X178602568Y-138264619D02*
X178602568Y-137264619D01*
X178602568Y-137264619D02*
X178983520Y-137264619D01*
X178983520Y-137264619D02*
X179078758Y-137312238D01*
X179078758Y-137312238D02*
X179126377Y-137359857D01*
X179126377Y-137359857D02*
X179173996Y-137455095D01*
X179173996Y-137455095D02*
X179173996Y-137597952D01*
X179173996Y-137597952D02*
X179126377Y-137693190D01*
X179126377Y-137693190D02*
X179078758Y-137740809D01*
X179078758Y-137740809D02*
X178983520Y-137788428D01*
X178983520Y-137788428D02*
X178602568Y-137788428D01*
X179602568Y-137740809D02*
X179935901Y-137740809D01*
X180078758Y-138264619D02*
X179602568Y-138264619D01*
X179602568Y-138264619D02*
X179602568Y-137264619D01*
X179602568Y-137264619D02*
X180078758Y-137264619D01*
X180459711Y-138217000D02*
X180602568Y-138264619D01*
X180602568Y-138264619D02*
X180840663Y-138264619D01*
X180840663Y-138264619D02*
X180935901Y-138217000D01*
X180935901Y-138217000D02*
X180983520Y-138169380D01*
X180983520Y-138169380D02*
X181031139Y-138074142D01*
X181031139Y-138074142D02*
X181031139Y-137978904D01*
X181031139Y-137978904D02*
X180983520Y-137883666D01*
X180983520Y-137883666D02*
X180935901Y-137836047D01*
X180935901Y-137836047D02*
X180840663Y-137788428D01*
X180840663Y-137788428D02*
X180650187Y-137740809D01*
X180650187Y-137740809D02*
X180554949Y-137693190D01*
X180554949Y-137693190D02*
X180507330Y-137645571D01*
X180507330Y-137645571D02*
X180459711Y-137550333D01*
X180459711Y-137550333D02*
X180459711Y-137455095D01*
X180459711Y-137455095D02*
X180507330Y-137359857D01*
X180507330Y-137359857D02*
X180554949Y-137312238D01*
X180554949Y-137312238D02*
X180650187Y-137264619D01*
X180650187Y-137264619D02*
X180888282Y-137264619D01*
X180888282Y-137264619D02*
X181031139Y-137312238D01*
X181459711Y-137740809D02*
X181793044Y-137740809D01*
X181935901Y-138264619D02*
X181459711Y-138264619D01*
X181459711Y-138264619D02*
X181459711Y-137264619D01*
X181459711Y-137264619D02*
X181935901Y-137264619D01*
X182221616Y-137264619D02*
X182793044Y-137264619D01*
X182507330Y-138264619D02*
X182507330Y-137264619D01*
X155854949Y-96917000D02*
X155997806Y-96964619D01*
X155997806Y-96964619D02*
X156235901Y-96964619D01*
X156235901Y-96964619D02*
X156331139Y-96917000D01*
X156331139Y-96917000D02*
X156378758Y-96869380D01*
X156378758Y-96869380D02*
X156426377Y-96774142D01*
X156426377Y-96774142D02*
X156426377Y-96678904D01*
X156426377Y-96678904D02*
X156378758Y-96583666D01*
X156378758Y-96583666D02*
X156331139Y-96536047D01*
X156331139Y-96536047D02*
X156235901Y-96488428D01*
X156235901Y-96488428D02*
X156045425Y-96440809D01*
X156045425Y-96440809D02*
X155950187Y-96393190D01*
X155950187Y-96393190D02*
X155902568Y-96345571D01*
X155902568Y-96345571D02*
X155854949Y-96250333D01*
X155854949Y-96250333D02*
X155854949Y-96155095D01*
X155854949Y-96155095D02*
X155902568Y-96059857D01*
X155902568Y-96059857D02*
X155950187Y-96012238D01*
X155950187Y-96012238D02*
X156045425Y-95964619D01*
X156045425Y-95964619D02*
X156283520Y-95964619D01*
X156283520Y-95964619D02*
X156426377Y-96012238D01*
X157426377Y-96869380D02*
X157378758Y-96917000D01*
X157378758Y-96917000D02*
X157235901Y-96964619D01*
X157235901Y-96964619D02*
X157140663Y-96964619D01*
X157140663Y-96964619D02*
X156997806Y-96917000D01*
X156997806Y-96917000D02*
X156902568Y-96821761D01*
X156902568Y-96821761D02*
X156854949Y-96726523D01*
X156854949Y-96726523D02*
X156807330Y-96536047D01*
X156807330Y-96536047D02*
X156807330Y-96393190D01*
X156807330Y-96393190D02*
X156854949Y-96202714D01*
X156854949Y-96202714D02*
X156902568Y-96107476D01*
X156902568Y-96107476D02*
X156997806Y-96012238D01*
X156997806Y-96012238D02*
X157140663Y-95964619D01*
X157140663Y-95964619D02*
X157235901Y-95964619D01*
X157235901Y-95964619D02*
X157378758Y-96012238D01*
X157378758Y-96012238D02*
X157426377Y-96059857D01*
X158426377Y-96964619D02*
X158093044Y-96488428D01*
X157854949Y-96964619D02*
X157854949Y-95964619D01*
X157854949Y-95964619D02*
X158235901Y-95964619D01*
X158235901Y-95964619D02*
X158331139Y-96012238D01*
X158331139Y-96012238D02*
X158378758Y-96059857D01*
X158378758Y-96059857D02*
X158426377Y-96155095D01*
X158426377Y-96155095D02*
X158426377Y-96297952D01*
X158426377Y-96297952D02*
X158378758Y-96393190D01*
X158378758Y-96393190D02*
X158331139Y-96440809D01*
X158331139Y-96440809D02*
X158235901Y-96488428D01*
X158235901Y-96488428D02*
X157854949Y-96488428D01*
X158854949Y-96440809D02*
X159188282Y-96440809D01*
X159331139Y-96964619D02*
X158854949Y-96964619D01*
X158854949Y-96964619D02*
X158854949Y-95964619D01*
X158854949Y-95964619D02*
X159331139Y-95964619D01*
X159759711Y-96440809D02*
X160093044Y-96440809D01*
X160235901Y-96964619D02*
X159759711Y-96964619D01*
X159759711Y-96964619D02*
X159759711Y-95964619D01*
X159759711Y-95964619D02*
X160235901Y-95964619D01*
X160664473Y-96964619D02*
X160664473Y-95964619D01*
X160664473Y-95964619D02*
X161235901Y-96964619D01*
X161235901Y-96964619D02*
X161235901Y-95964619D01*
X149202568Y-92864619D02*
X149202568Y-91864619D01*
X149202568Y-91864619D02*
X149535901Y-92578904D01*
X149535901Y-92578904D02*
X149869234Y-91864619D01*
X149869234Y-91864619D02*
X149869234Y-92864619D01*
X150345425Y-92864619D02*
X150345425Y-91864619D01*
X151393043Y-92769380D02*
X151345424Y-92817000D01*
X151345424Y-92817000D02*
X151202567Y-92864619D01*
X151202567Y-92864619D02*
X151107329Y-92864619D01*
X151107329Y-92864619D02*
X150964472Y-92817000D01*
X150964472Y-92817000D02*
X150869234Y-92721761D01*
X150869234Y-92721761D02*
X150821615Y-92626523D01*
X150821615Y-92626523D02*
X150773996Y-92436047D01*
X150773996Y-92436047D02*
X150773996Y-92293190D01*
X150773996Y-92293190D02*
X150821615Y-92102714D01*
X150821615Y-92102714D02*
X150869234Y-92007476D01*
X150869234Y-92007476D02*
X150964472Y-91912238D01*
X150964472Y-91912238D02*
X151107329Y-91864619D01*
X151107329Y-91864619D02*
X151202567Y-91864619D01*
X151202567Y-91864619D02*
X151345424Y-91912238D01*
X151345424Y-91912238D02*
X151393043Y-91959857D01*
X152393043Y-92864619D02*
X152059710Y-92388428D01*
X151821615Y-92864619D02*
X151821615Y-91864619D01*
X151821615Y-91864619D02*
X152202567Y-91864619D01*
X152202567Y-91864619D02*
X152297805Y-91912238D01*
X152297805Y-91912238D02*
X152345424Y-91959857D01*
X152345424Y-91959857D02*
X152393043Y-92055095D01*
X152393043Y-92055095D02*
X152393043Y-92197952D01*
X152393043Y-92197952D02*
X152345424Y-92293190D01*
X152345424Y-92293190D02*
X152297805Y-92340809D01*
X152297805Y-92340809D02*
X152202567Y-92388428D01*
X152202567Y-92388428D02*
X151821615Y-92388428D01*
X153012091Y-91864619D02*
X153202567Y-91864619D01*
X153202567Y-91864619D02*
X153297805Y-91912238D01*
X153297805Y-91912238D02*
X153393043Y-92007476D01*
X153393043Y-92007476D02*
X153440662Y-92197952D01*
X153440662Y-92197952D02*
X153440662Y-92531285D01*
X153440662Y-92531285D02*
X153393043Y-92721761D01*
X153393043Y-92721761D02*
X153297805Y-92817000D01*
X153297805Y-92817000D02*
X153202567Y-92864619D01*
X153202567Y-92864619D02*
X153012091Y-92864619D01*
X153012091Y-92864619D02*
X152916853Y-92817000D01*
X152916853Y-92817000D02*
X152821615Y-92721761D01*
X152821615Y-92721761D02*
X152773996Y-92531285D01*
X152773996Y-92531285D02*
X152773996Y-92197952D01*
X152773996Y-92197952D02*
X152821615Y-92007476D01*
X152821615Y-92007476D02*
X152916853Y-91912238D01*
X152916853Y-91912238D02*
X153012091Y-91864619D01*
D11*
X185177474Y-95108500D02*
X185248902Y-95132309D01*
X185248902Y-95132309D02*
X185367950Y-95132309D01*
X185367950Y-95132309D02*
X185415569Y-95108500D01*
X185415569Y-95108500D02*
X185439378Y-95084690D01*
X185439378Y-95084690D02*
X185463188Y-95037071D01*
X185463188Y-95037071D02*
X185463188Y-94989452D01*
X185463188Y-94989452D02*
X185439378Y-94941833D01*
X185439378Y-94941833D02*
X185415569Y-94918023D01*
X185415569Y-94918023D02*
X185367950Y-94894214D01*
X185367950Y-94894214D02*
X185272712Y-94870404D01*
X185272712Y-94870404D02*
X185225093Y-94846595D01*
X185225093Y-94846595D02*
X185201283Y-94822785D01*
X185201283Y-94822785D02*
X185177474Y-94775166D01*
X185177474Y-94775166D02*
X185177474Y-94727547D01*
X185177474Y-94727547D02*
X185201283Y-94679928D01*
X185201283Y-94679928D02*
X185225093Y-94656119D01*
X185225093Y-94656119D02*
X185272712Y-94632309D01*
X185272712Y-94632309D02*
X185391759Y-94632309D01*
X185391759Y-94632309D02*
X185463188Y-94656119D01*
X185677473Y-95132309D02*
X185677473Y-94632309D01*
X185677473Y-94632309D02*
X185796521Y-94632309D01*
X185796521Y-94632309D02*
X185867949Y-94656119D01*
X185867949Y-94656119D02*
X185915568Y-94703738D01*
X185915568Y-94703738D02*
X185939378Y-94751357D01*
X185939378Y-94751357D02*
X185963187Y-94846595D01*
X185963187Y-94846595D02*
X185963187Y-94918023D01*
X185963187Y-94918023D02*
X185939378Y-95013261D01*
X185939378Y-95013261D02*
X185915568Y-95060880D01*
X185915568Y-95060880D02*
X185867949Y-95108500D01*
X185867949Y-95108500D02*
X185796521Y-95132309D01*
X185796521Y-95132309D02*
X185677473Y-95132309D01*
X186153664Y-94989452D02*
X186391759Y-94989452D01*
X186106045Y-95132309D02*
X186272711Y-94632309D01*
X186272711Y-94632309D02*
X186439378Y-95132309D01*
D12*
X140373996Y-103169380D02*
X140326377Y-103217000D01*
X140326377Y-103217000D02*
X140183520Y-103264619D01*
X140183520Y-103264619D02*
X140088282Y-103264619D01*
X140088282Y-103264619D02*
X139945425Y-103217000D01*
X139945425Y-103217000D02*
X139850187Y-103121761D01*
X139850187Y-103121761D02*
X139802568Y-103026523D01*
X139802568Y-103026523D02*
X139754949Y-102836047D01*
X139754949Y-102836047D02*
X139754949Y-102693190D01*
X139754949Y-102693190D02*
X139802568Y-102502714D01*
X139802568Y-102502714D02*
X139850187Y-102407476D01*
X139850187Y-102407476D02*
X139945425Y-102312238D01*
X139945425Y-102312238D02*
X140088282Y-102264619D01*
X140088282Y-102264619D02*
X140183520Y-102264619D01*
X140183520Y-102264619D02*
X140326377Y-102312238D01*
X140326377Y-102312238D02*
X140373996Y-102359857D01*
X140993044Y-102264619D02*
X141183520Y-102264619D01*
X141183520Y-102264619D02*
X141278758Y-102312238D01*
X141278758Y-102312238D02*
X141373996Y-102407476D01*
X141373996Y-102407476D02*
X141421615Y-102597952D01*
X141421615Y-102597952D02*
X141421615Y-102931285D01*
X141421615Y-102931285D02*
X141373996Y-103121761D01*
X141373996Y-103121761D02*
X141278758Y-103217000D01*
X141278758Y-103217000D02*
X141183520Y-103264619D01*
X141183520Y-103264619D02*
X140993044Y-103264619D01*
X140993044Y-103264619D02*
X140897806Y-103217000D01*
X140897806Y-103217000D02*
X140802568Y-103121761D01*
X140802568Y-103121761D02*
X140754949Y-102931285D01*
X140754949Y-102931285D02*
X140754949Y-102597952D01*
X140754949Y-102597952D02*
X140802568Y-102407476D01*
X140802568Y-102407476D02*
X140897806Y-102312238D01*
X140897806Y-102312238D02*
X140993044Y-102264619D01*
X141850187Y-103264619D02*
X141850187Y-102264619D01*
X141850187Y-102264619D02*
X142183520Y-102978904D01*
X142183520Y-102978904D02*
X142516853Y-102264619D01*
X142516853Y-102264619D02*
X142516853Y-103264619D01*
X150907330Y-115464619D02*
X151526377Y-115464619D01*
X151526377Y-115464619D02*
X151193044Y-115845571D01*
X151193044Y-115845571D02*
X151335901Y-115845571D01*
X151335901Y-115845571D02*
X151431139Y-115893190D01*
X151431139Y-115893190D02*
X151478758Y-115940809D01*
X151478758Y-115940809D02*
X151526377Y-116036047D01*
X151526377Y-116036047D02*
X151526377Y-116274142D01*
X151526377Y-116274142D02*
X151478758Y-116369380D01*
X151478758Y-116369380D02*
X151431139Y-116417000D01*
X151431139Y-116417000D02*
X151335901Y-116464619D01*
X151335901Y-116464619D02*
X151050187Y-116464619D01*
X151050187Y-116464619D02*
X150954949Y-116417000D01*
X150954949Y-116417000D02*
X150907330Y-116369380D01*
X151954949Y-116369380D02*
X152002568Y-116417000D01*
X152002568Y-116417000D02*
X151954949Y-116464619D01*
X151954949Y-116464619D02*
X151907330Y-116417000D01*
X151907330Y-116417000D02*
X151954949Y-116369380D01*
X151954949Y-116369380D02*
X151954949Y-116464619D01*
X152335901Y-115464619D02*
X152954948Y-115464619D01*
X152954948Y-115464619D02*
X152621615Y-115845571D01*
X152621615Y-115845571D02*
X152764472Y-115845571D01*
X152764472Y-115845571D02*
X152859710Y-115893190D01*
X152859710Y-115893190D02*
X152907329Y-115940809D01*
X152907329Y-115940809D02*
X152954948Y-116036047D01*
X152954948Y-116036047D02*
X152954948Y-116274142D01*
X152954948Y-116274142D02*
X152907329Y-116369380D01*
X152907329Y-116369380D02*
X152859710Y-116417000D01*
X152859710Y-116417000D02*
X152764472Y-116464619D01*
X152764472Y-116464619D02*
X152478758Y-116464619D01*
X152478758Y-116464619D02*
X152383520Y-116417000D01*
X152383520Y-116417000D02*
X152335901Y-116369380D01*
X153240663Y-115464619D02*
X153573996Y-116464619D01*
X153573996Y-116464619D02*
X153907329Y-115464619D01*
D11*
X187977474Y-90508500D02*
X188048902Y-90532309D01*
X188048902Y-90532309D02*
X188167950Y-90532309D01*
X188167950Y-90532309D02*
X188215569Y-90508500D01*
X188215569Y-90508500D02*
X188239378Y-90484690D01*
X188239378Y-90484690D02*
X188263188Y-90437071D01*
X188263188Y-90437071D02*
X188263188Y-90389452D01*
X188263188Y-90389452D02*
X188239378Y-90341833D01*
X188239378Y-90341833D02*
X188215569Y-90318023D01*
X188215569Y-90318023D02*
X188167950Y-90294214D01*
X188167950Y-90294214D02*
X188072712Y-90270404D01*
X188072712Y-90270404D02*
X188025093Y-90246595D01*
X188025093Y-90246595D02*
X188001283Y-90222785D01*
X188001283Y-90222785D02*
X187977474Y-90175166D01*
X187977474Y-90175166D02*
X187977474Y-90127547D01*
X187977474Y-90127547D02*
X188001283Y-90079928D01*
X188001283Y-90079928D02*
X188025093Y-90056119D01*
X188025093Y-90056119D02*
X188072712Y-90032309D01*
X188072712Y-90032309D02*
X188191759Y-90032309D01*
X188191759Y-90032309D02*
X188263188Y-90056119D01*
X188477473Y-90532309D02*
X188477473Y-90032309D01*
X188477473Y-90032309D02*
X188596521Y-90032309D01*
X188596521Y-90032309D02*
X188667949Y-90056119D01*
X188667949Y-90056119D02*
X188715568Y-90103738D01*
X188715568Y-90103738D02*
X188739378Y-90151357D01*
X188739378Y-90151357D02*
X188763187Y-90246595D01*
X188763187Y-90246595D02*
X188763187Y-90318023D01*
X188763187Y-90318023D02*
X188739378Y-90413261D01*
X188739378Y-90413261D02*
X188715568Y-90460880D01*
X188715568Y-90460880D02*
X188667949Y-90508500D01*
X188667949Y-90508500D02*
X188596521Y-90532309D01*
X188596521Y-90532309D02*
X188477473Y-90532309D01*
X188953664Y-90389452D02*
X189191759Y-90389452D01*
X188906045Y-90532309D02*
X189072711Y-90032309D01*
X189072711Y-90032309D02*
X189239378Y-90532309D01*
D12*
X181940809Y-82864098D02*
X181988428Y-82721241D01*
X181988428Y-82721241D02*
X182036047Y-82673622D01*
X182036047Y-82673622D02*
X182131285Y-82626003D01*
X182131285Y-82626003D02*
X182274142Y-82626003D01*
X182274142Y-82626003D02*
X182369380Y-82673622D01*
X182369380Y-82673622D02*
X182417000Y-82721241D01*
X182417000Y-82721241D02*
X182464619Y-82816479D01*
X182464619Y-82816479D02*
X182464619Y-83197431D01*
X182464619Y-83197431D02*
X181464619Y-83197431D01*
X181464619Y-83197431D02*
X181464619Y-82864098D01*
X181464619Y-82864098D02*
X181512238Y-82768860D01*
X181512238Y-82768860D02*
X181559857Y-82721241D01*
X181559857Y-82721241D02*
X181655095Y-82673622D01*
X181655095Y-82673622D02*
X181750333Y-82673622D01*
X181750333Y-82673622D02*
X181845571Y-82721241D01*
X181845571Y-82721241D02*
X181893190Y-82768860D01*
X181893190Y-82768860D02*
X181940809Y-82864098D01*
X181940809Y-82864098D02*
X181940809Y-83197431D01*
X181464619Y-82340288D02*
X181464619Y-81768860D01*
X182464619Y-82054574D02*
X181464619Y-82054574D01*
X182464619Y-81435526D02*
X181464619Y-81435526D01*
X181464619Y-81435526D02*
X182464619Y-80864098D01*
X182464619Y-80864098D02*
X181464619Y-80864098D01*
X182464619Y-79864098D02*
X182464619Y-80435526D01*
X182464619Y-80149812D02*
X181464619Y-80149812D01*
X181464619Y-80149812D02*
X181607476Y-80245050D01*
X181607476Y-80245050D02*
X181702714Y-80340288D01*
X181702714Y-80340288D02*
X181750333Y-80435526D01*
D13*
%TO.C,R14*%
X142027064Y-128640000D02*
X140572936Y-128640000D01*
X142027064Y-130460000D02*
X140572936Y-130460000D01*
%TO.C,UART1*%
X191870000Y-116470000D02*
X193200000Y-116470000D01*
X191870000Y-117800000D02*
X191870000Y-116470000D01*
X191870000Y-119070000D02*
X191870000Y-126750000D01*
X191870000Y-119070000D02*
X194530000Y-119070000D01*
X191870000Y-126750000D02*
X194530000Y-126750000D01*
X194530000Y-119070000D02*
X194530000Y-126750000D01*
%TO.C,R13*%
X141977064Y-125890000D02*
X140522936Y-125890000D01*
X141977064Y-127710000D02*
X140522936Y-127710000D01*
%TO.C,C5*%
X182326248Y-123690000D02*
X183748752Y-123690000D01*
X182326248Y-125510000D02*
X183748752Y-125510000D01*
%TO.C,U2*%
X182150000Y-109810000D02*
X181350000Y-109810000D01*
X182150000Y-109810000D02*
X182950000Y-109810000D01*
X183150000Y-106590000D02*
X181350000Y-106590000D01*
X183690000Y-110090000D02*
X183210000Y-110090000D01*
X183450000Y-109760000D01*
X183690000Y-110090000D01*
G36*
X183690000Y-110090000D02*
G01*
X183210000Y-110090000D01*
X183450000Y-109760000D01*
X183690000Y-110090000D01*
G37*
%TO.C,D6*%
X137200000Y-86950000D02*
X137200000Y-93500000D01*
X137200000Y-93500000D02*
X137650000Y-93950000D01*
X137650000Y-93950000D02*
X142700000Y-93950000D01*
X139050000Y-87750000D02*
X140850000Y-87750000D01*
X139050000Y-93150000D02*
X140850000Y-93150000D01*
X142700000Y-86950000D02*
X137200000Y-86950000D01*
X142700000Y-86950000D02*
X142700000Y-93950000D01*
%TO.C,SW1*%
X151180000Y-132330000D02*
X151480000Y-132330000D01*
X151180000Y-136470000D02*
X151180000Y-132330000D01*
X151480000Y-136470000D02*
X151180000Y-136470000D01*
X154020000Y-132330000D02*
X154320000Y-132330000D01*
X154320000Y-132330000D02*
X154320000Y-136470000D01*
X154320000Y-136470000D02*
X154020000Y-136470000D01*
%TO.C,Q1*%
X145352500Y-130040000D02*
X147172500Y-130040000D01*
X145352500Y-130090000D02*
X145352500Y-130040000D01*
X145352500Y-131990000D02*
X145352500Y-131210000D01*
X145352500Y-133160000D02*
X145352500Y-133110000D01*
X147172500Y-130040000D02*
X147172500Y-131040000D01*
X147172500Y-132160000D02*
X147172500Y-133160000D01*
X147172500Y-133160000D02*
X145352500Y-133160000D01*
X145052500Y-131550000D02*
X144572500Y-131550000D01*
X144812500Y-131220000D01*
X145052500Y-131550000D01*
G36*
X145052500Y-131550000D02*
G01*
X144572500Y-131550000D01*
X144812500Y-131220000D01*
X145052500Y-131550000D01*
G37*
%TO.C,D4*%
X175590000Y-102750000D02*
X175590000Y-106050000D01*
X175590000Y-102750000D02*
X182600000Y-102750000D01*
X175590000Y-106050000D02*
X182600000Y-106050000D01*
%TO.C,C1*%
X136665000Y-127976248D02*
X136665000Y-128498752D01*
X138135000Y-127976248D02*
X138135000Y-128498752D01*
%TO.C,SW5*%
X176230000Y-92030000D02*
X180370000Y-92030000D01*
X176230000Y-92330000D02*
X176230000Y-92030000D01*
X176230000Y-95170000D02*
X176230000Y-94870000D01*
X180370000Y-92030000D02*
X180370000Y-92330000D01*
X180370000Y-94870000D02*
X180370000Y-95170000D01*
X180370000Y-95170000D02*
X176230000Y-95170000D01*
%TO.C,U4*%
X183000000Y-115940000D02*
X186760000Y-115940000D01*
X183000000Y-122760000D02*
X186760000Y-122760000D01*
X186760000Y-115940000D02*
X186760000Y-117200000D01*
X186760000Y-122760000D02*
X186760000Y-121500000D01*
X181720000Y-116040000D02*
X181480000Y-115710000D01*
X181960000Y-115710000D01*
X181720000Y-116040000D01*
G36*
X181720000Y-116040000D02*
G01*
X181480000Y-115710000D01*
X181960000Y-115710000D01*
X181720000Y-116040000D01*
G37*
%TO.C,R12*%
X143272936Y-100265000D02*
X143727064Y-100265000D01*
X143272936Y-101735000D02*
X143727064Y-101735000D01*
%TO.C,SW2*%
X178930000Y-132430000D02*
X179230000Y-132430000D01*
X178930000Y-136570000D02*
X178930000Y-132430000D01*
X179230000Y-136570000D02*
X178930000Y-136570000D01*
X181770000Y-132430000D02*
X182070000Y-132430000D01*
X182070000Y-132430000D02*
X182070000Y-136570000D01*
X182070000Y-136570000D02*
X181770000Y-136570000D01*
%TO.C,C2*%
X183265000Y-134776248D02*
X183265000Y-135298752D01*
X184735000Y-134776248D02*
X184735000Y-135298752D01*
%TO.C,J2*%
X137270000Y-98330000D02*
X137270000Y-97000000D01*
X138600000Y-98330000D02*
X137270000Y-98330000D01*
X139870000Y-95670000D02*
X145010000Y-95670000D01*
X139870000Y-98330000D02*
X139870000Y-95670000D01*
X139870000Y-98330000D02*
X145010000Y-98330000D01*
X145010000Y-98330000D02*
X145010000Y-95670000D01*
%TO.C,J4*%
X155670000Y-97470000D02*
X157000000Y-97470000D01*
X155670000Y-98800000D02*
X155670000Y-97470000D01*
X158270000Y-97470000D02*
X176110000Y-97470000D01*
X158270000Y-100130000D02*
X158270000Y-97470000D01*
X158270000Y-100130000D02*
X176110000Y-100130000D01*
X176110000Y-100130000D02*
X176110000Y-97470000D01*
%TO.C,C9*%
X187840000Y-127251248D02*
X187840000Y-128673752D01*
X190560000Y-127251248D02*
X190560000Y-128673752D01*
%TO.C,D2*%
X147475000Y-111960000D02*
X150335000Y-111960000D01*
X150335000Y-110040000D02*
X147475000Y-110040000D01*
X150335000Y-111960000D02*
X150335000Y-110040000D01*
%TO.C,C19*%
X179065000Y-128376248D02*
X179065000Y-128898752D01*
X180535000Y-128376248D02*
X180535000Y-128898752D01*
%TO.C,C16*%
X177101248Y-89865000D02*
X177623752Y-89865000D01*
X177101248Y-91335000D02*
X177623752Y-91335000D01*
%TO.C,R6*%
X186090000Y-81522936D02*
X186090000Y-82977064D01*
X187910000Y-81522936D02*
X187910000Y-82977064D01*
%TO.C,D5*%
X178390000Y-96150000D02*
X178390000Y-99450000D01*
X178390000Y-96150000D02*
X185400000Y-96150000D01*
X178390000Y-99450000D02*
X185400000Y-99450000D01*
%TO.C,J3*%
X136600000Y-103800000D02*
X136600000Y-113200000D01*
X138500000Y-103800000D02*
X136600000Y-103800000D01*
X138500000Y-113200000D02*
X136600000Y-113200000D01*
X142400000Y-103800000D02*
X140400000Y-103800000D01*
X142400000Y-113200000D02*
X140400000Y-113200000D01*
%TO.C,C4*%
X154865000Y-84498752D02*
X154865000Y-83976248D01*
X156335000Y-84498752D02*
X156335000Y-83976248D01*
%TO.C,U1*%
X140525000Y-114835000D02*
X138575000Y-114835000D01*
X140525000Y-114835000D02*
X142475000Y-114835000D01*
X140525000Y-124955000D02*
X138575000Y-124955000D01*
X140525000Y-124955000D02*
X142475000Y-124955000D01*
X143465000Y-125230000D02*
X142985000Y-125230000D01*
X143225000Y-124900000D01*
X143465000Y-125230000D01*
G36*
X143465000Y-125230000D02*
G01*
X142985000Y-125230000D01*
X143225000Y-124900000D01*
X143465000Y-125230000D01*
G37*
%TO.C,SW6*%
X158100000Y-83600000D02*
X158700000Y-83600000D01*
X158400000Y-83900000D02*
X158100000Y-83600000D01*
X158700000Y-83600000D02*
X158400000Y-83900000D01*
X159800000Y-81800000D02*
X159800000Y-93600000D01*
X163900000Y-81800000D02*
X159800000Y-81800000D01*
X163900000Y-93600000D02*
X159800000Y-93600000D01*
X165400000Y-87700000D02*
X166400000Y-87700000D01*
X165900000Y-87200000D02*
X165900000Y-88200000D01*
X167900000Y-81800000D02*
X172000000Y-81800000D01*
X172000000Y-81800000D02*
X172000000Y-84200000D01*
X172000000Y-86400000D02*
X172000000Y-89000000D01*
X172000000Y-91200000D02*
X172000000Y-93600000D01*
X172000000Y-93600000D02*
X167900000Y-93600000D01*
X168900000Y-87700000D02*
G75*
G02*
X162900000Y-87700000I-3000000J0D01*
G01*
X162900000Y-87700000D02*
G75*
G02*
X168900000Y-87700000I3000000J0D01*
G01*
%TO.C,SW4*%
X176230000Y-86030000D02*
X180370000Y-86030000D01*
X176230000Y-86330000D02*
X176230000Y-86030000D01*
X176230000Y-89170000D02*
X176230000Y-88870000D01*
X180370000Y-86030000D02*
X180370000Y-86330000D01*
X180370000Y-88870000D02*
X180370000Y-89170000D01*
X180370000Y-89170000D02*
X176230000Y-89170000D01*
%TO.C,C6*%
X168665000Y-105823752D02*
X168665000Y-105301248D01*
X170135000Y-105823752D02*
X170135000Y-105301248D01*
%TO.C,U3*%
X149500000Y-109060000D02*
X151300000Y-109060000D01*
X150500000Y-105840000D02*
X149700000Y-105840000D01*
X150500000Y-105840000D02*
X151300000Y-105840000D01*
X149200000Y-105890000D02*
X148960000Y-105560000D01*
X149440000Y-105560000D01*
X149200000Y-105890000D01*
G36*
X149200000Y-105890000D02*
G01*
X148960000Y-105560000D01*
X149440000Y-105560000D01*
X149200000Y-105890000D01*
G37*
%TO.C,R4*%
X151227064Y-126265000D02*
X150772936Y-126265000D01*
X151227064Y-127735000D02*
X150772936Y-127735000D01*
%TO.C,C7*%
X183673752Y-113090000D02*
X182251248Y-113090000D01*
X183673752Y-114910000D02*
X182251248Y-114910000D01*
%TO.C,C17*%
X174048752Y-113040000D02*
X172626248Y-113040000D01*
X174048752Y-115760000D02*
X172626248Y-115760000D01*
%TO.C,R9*%
X150772936Y-123765000D02*
X151227064Y-123765000D01*
X150772936Y-125235000D02*
X151227064Y-125235000D01*
%TO.C,Q2*%
X145352500Y-126040000D02*
X147172500Y-126040000D01*
X145352500Y-126090000D02*
X145352500Y-126040000D01*
X145352500Y-127990000D02*
X145352500Y-127210000D01*
X145352500Y-129160000D02*
X145352500Y-129110000D01*
X147172500Y-126040000D02*
X147172500Y-127040000D01*
X147172500Y-128160000D02*
X147172500Y-129160000D01*
X147172500Y-129160000D02*
X145352500Y-129160000D01*
X145052500Y-127550000D02*
X144572500Y-127550000D01*
X144812500Y-127220000D01*
X145052500Y-127550000D01*
G36*
X145052500Y-127550000D02*
G01*
X144572500Y-127550000D01*
X144812500Y-127220000D01*
X145052500Y-127550000D01*
G37*
%TO.C,C12*%
X145501248Y-85265000D02*
X146023752Y-85265000D01*
X145501248Y-86735000D02*
X146023752Y-86735000D01*
%TO.C,C18*%
X164840000Y-105673752D02*
X164840000Y-104251248D01*
X167560000Y-105673752D02*
X167560000Y-104251248D01*
%TO.C,D3*%
X156210000Y-101850000D02*
X149200000Y-101850000D01*
X156210000Y-105150000D02*
X149200000Y-105150000D01*
X156210000Y-105150000D02*
X156210000Y-101850000D01*
%TO.C,D1*%
X147525000Y-116960000D02*
X150385000Y-116960000D01*
X150385000Y-115040000D02*
X147525000Y-115040000D01*
X150385000Y-116960000D02*
X150385000Y-115040000D01*
%TO.C,R2*%
X193327936Y-100625000D02*
X193782064Y-100625000D01*
X193327936Y-102095000D02*
X193782064Y-102095000D01*
%TO.C,R3*%
X188327936Y-100625000D02*
X188782064Y-100625000D01*
X188327936Y-102095000D02*
X188782064Y-102095000D01*
%TO.C,R8*%
X147227064Y-123765000D02*
X146772936Y-123765000D01*
X147227064Y-125235000D02*
X146772936Y-125235000D01*
%TO.C,R10*%
X186090000Y-134322936D02*
X186090000Y-135777064D01*
X187910000Y-134322936D02*
X187910000Y-135777064D01*
%TO.C,J10*%
X145745000Y-83030000D02*
X145745000Y-81700000D01*
X147075000Y-83030000D02*
X145745000Y-83030000D01*
X148345000Y-80370000D02*
X153485000Y-80370000D01*
X148345000Y-83030000D02*
X148345000Y-80370000D01*
X148345000Y-83030000D02*
X153485000Y-83030000D01*
X153485000Y-83030000D02*
X153485000Y-80370000D01*
%TO.C,R11*%
X138272936Y-100265000D02*
X138727064Y-100265000D01*
X138272936Y-101735000D02*
X138727064Y-101735000D01*
%TO.C,J1*%
X189700000Y-103910000D02*
X191700000Y-103910000D01*
X189700000Y-113310000D02*
X191700000Y-113310000D01*
X193600000Y-103910000D02*
X195500000Y-103910000D01*
X193600000Y-113310000D02*
X195500000Y-113310000D01*
X195500000Y-113310000D02*
X195500000Y-103910000D01*
%TO.C,J7*%
X156790000Y-109470000D02*
X156790000Y-112130000D01*
X172090000Y-109470000D02*
X156790000Y-109470000D01*
X172090000Y-109470000D02*
X172090000Y-112130000D01*
X172090000Y-112130000D02*
X156790000Y-112130000D01*
X173360000Y-109470000D02*
X174690000Y-109470000D01*
X174690000Y-109470000D02*
X174690000Y-110800000D01*
%TO.C,I2C1*%
X184490000Y-91670000D02*
X185820000Y-91670000D01*
X184490000Y-93000000D02*
X184490000Y-91670000D01*
X187090000Y-91670000D02*
X194770000Y-91670000D01*
X187090000Y-94330000D02*
X187090000Y-91670000D01*
X187090000Y-94330000D02*
X194770000Y-94330000D01*
X194770000Y-94330000D02*
X194770000Y-91670000D01*
%TO.C,C11*%
X182065000Y-128376248D02*
X182065000Y-128898752D01*
X183535000Y-128376248D02*
X183535000Y-128898752D01*
%TO.C,R7*%
X146027064Y-92665000D02*
X145572936Y-92665000D01*
X146027064Y-94135000D02*
X145572936Y-94135000D01*
%TO.C,C14*%
X180276248Y-83765000D02*
X180798752Y-83765000D01*
X180276248Y-85235000D02*
X180798752Y-85235000D01*
%TO.C,D7*%
X147525000Y-114460000D02*
X150385000Y-114460000D01*
X150385000Y-112540000D02*
X147525000Y-112540000D01*
X150385000Y-114460000D02*
X150385000Y-112540000D01*
%TO.C,J9*%
X145745000Y-91130000D02*
X145745000Y-89800000D01*
X147075000Y-91130000D02*
X145745000Y-91130000D01*
X148345000Y-88470000D02*
X153485000Y-88470000D01*
X148345000Y-91130000D02*
X148345000Y-88470000D01*
X148345000Y-91130000D02*
X153485000Y-91130000D01*
X153485000Y-91130000D02*
X153485000Y-88470000D01*
%TO.C,J5*%
X189570000Y-99030000D02*
X189570000Y-97700000D01*
X190900000Y-99030000D02*
X189570000Y-99030000D01*
X192170000Y-96370000D02*
X194770000Y-96370000D01*
X192170000Y-99030000D02*
X192170000Y-96370000D01*
X192170000Y-99030000D02*
X194770000Y-99030000D01*
X194770000Y-99030000D02*
X194770000Y-96370000D01*
%TO.C,J6*%
X184530000Y-86970000D02*
X184530000Y-89630000D01*
X192210000Y-86970000D02*
X184530000Y-86970000D01*
X192210000Y-86970000D02*
X192210000Y-89630000D01*
X192210000Y-89630000D02*
X184530000Y-89630000D01*
X193480000Y-86970000D02*
X194810000Y-86970000D01*
X194810000Y-86970000D02*
X194810000Y-88300000D01*
%TO.C,R5*%
X183490000Y-81472936D02*
X183490000Y-82927064D01*
X185310000Y-81472936D02*
X185310000Y-82927064D01*
%TO.C,C8*%
X162265000Y-105898752D02*
X162265000Y-105376248D01*
X163735000Y-105898752D02*
X163735000Y-105376248D01*
%TO.C,C13*%
X154865000Y-89498752D02*
X154865000Y-88976248D01*
X156335000Y-89498752D02*
X156335000Y-88976248D01*
%TO.C,C15*%
X176798752Y-83765000D02*
X176276248Y-83765000D01*
X176798752Y-85235000D02*
X176276248Y-85235000D01*
%TO.C,C3*%
X159865000Y-105898752D02*
X159865000Y-105376248D01*
X161335000Y-105898752D02*
X161335000Y-105376248D01*
%TO.C,R1*%
X148277064Y-134290000D02*
X146822936Y-134290000D01*
X148277064Y-136110000D02*
X146822936Y-136110000D01*
%TO.C,U6*%
X156795606Y-117610000D02*
X156795606Y-118610000D01*
X156795606Y-117610000D02*
X158295606Y-117610000D01*
X156795606Y-137210000D02*
X156795606Y-136510000D01*
X175195606Y-117610000D02*
X173695606Y-117610000D01*
X175195606Y-118610000D02*
X175195606Y-117610000D01*
X175195606Y-137210000D02*
X156795606Y-137210000D01*
X175195606Y-136960000D02*
X175195606Y-136460000D01*
X175695606Y-136460000D01*
X175195606Y-136960000D01*
G36*
X175195606Y-136960000D02*
G01*
X175195606Y-136460000D01*
X175695606Y-136460000D01*
X175195606Y-136960000D01*
G37*
%TO.C,SW3*%
X176230000Y-80030000D02*
X180370000Y-80030000D01*
X176230000Y-80330000D02*
X176230000Y-80030000D01*
X176230000Y-83170000D02*
X176230000Y-82870000D01*
X180370000Y-80030000D02*
X180370000Y-80330000D01*
X180370000Y-82870000D02*
X180370000Y-83170000D01*
X180370000Y-83170000D02*
X176230000Y-83170000D01*
%TO.C,JP1*%
X165175000Y-113000000D02*
X167975000Y-113000000D01*
X165175000Y-115000000D02*
X165175000Y-113000000D01*
X167975000Y-113000000D02*
X167975000Y-115000000D01*
X167975000Y-115000000D02*
X165175000Y-115000000D01*
%TO.C,C10*%
X185065000Y-128376248D02*
X185065000Y-128898752D01*
X186535000Y-128376248D02*
X186535000Y-128898752D01*
%TD*%
M02*
